<?xml version="1.0" encoding="utf-8"?>
<!-- Generator: Adobe Illustrator 26.0.1, SVG Export Plug-In . SVG Version: 6.00 Build 0)  -->
<svg version="1.1" id="Layer_1" xmlns="http://www.w3.org/2000/svg" xmlns:xlink="http://www.w3.org/1999/xlink" x="0px" y="0px"
	 viewBox="1179.773 26.96 3136.506 2222" enable-background="new 1179.773 26.96 3136.506 2222" xml:space="preserve">
<g>
	<rect x="1179.781" y="26.96" fill-rule="evenodd" clip-rule="evenodd" fill="#FFFFFF" width="3136.497" height="2221.965"/>
	<g>
		<path fill-rule="evenodd" clip-rule="evenodd" fill="#E6E7E8" d="M4081.213,2248.96l79.841-92.283
			c24.289-28.057,67.133-31.132,95.189-6.862l60.018,51.922v47.224H4081.213z"/>
		<path fill="#E6E7E8" d="M4090.339,2248.96l98.468-113.815c13.149-15.178,31.301-23.628,49.927-24.947
			c18.659-1.352,37.827,4.394,52.986,17.51h0.018l24.524,21.229v14.502l-31.689-27.449c-12.897-11.122-29.173-16.023-45.026-14.874
			c-15.853,1.149-31.302,8.316-42.456,21.195l-92.249,106.65H4090.339z"/>
		<path fill-rule="evenodd" clip-rule="evenodd" fill="#E6E7E8" d="M4316.261,2109.353l-20.737-17.951
			c-18.221-15.751-20.25-43.571-4.462-61.792l25.199-29.138V2109.353z"/>
		<path fill="#E6E7E8" d="M4316.261,2143.256l-31.826-27.55c-10.242-8.856-15.921-21.127-16.833-33.735l0,0
			c-0.929-12.574,2.94-25.554,11.814-35.797l36.845-42.593v16.767l-28.546,32.991c-6.895,7.979-9.905,18.051-9.195,27.819v0.035
			c0.711,9.77,5.121,19.336,13.083,26.231l0,0l24.659,21.329V2143.256z"/>
		<path fill-rule="evenodd" clip-rule="evenodd" fill="#E6E7E8" d="M3887.352,1799.379l119.359,103.268
			c27.92,24.169,30.997,66.828,6.828,94.784l-103.268,119.324c-24.169,27.955-66.812,31.032-94.75,6.828l-119.359-103.268
			c-27.939-24.17-31.014-66.828-6.828-94.75l103.268-119.359C3816.772,1778.285,3859.413,1775.21,3887.352,1799.379z"/>
		<path fill-rule="evenodd" clip-rule="evenodd" fill="#E6E7E8" d="M4111.635,1899.2l89.477,77.442
			c20.957,18.152,23.29,50.13,5.138,71.088l-77.442,89.476c-18.153,20.992-50.13,23.29-71.089,5.138l-89.476-77.442
			c-20.974-18.119-23.29-50.096-5.138-71.055l77.442-89.511C4058.7,1883.379,4090.677,1881.081,4111.635,1899.2z"/>
		<path fill="#E6E7E8" d="M4125.68,1947.132l89.494,77.443c11.628,10.04,18.084,23.932,19.133,38.231
			c1.013,14.264-3.382,28.969-13.455,40.597l-77.425,89.476c-10.058,11.628-23.95,18.084-38.214,19.098
			c-14.282,1.049-28.97-3.38-40.582-13.42l-89.527-77.443c-11.611-10.038-18.069-23.965-19.098-38.229
			c-1.014-14.266,3.363-28.936,13.42-40.565l77.443-89.511c10.073-11.627,23.965-18.084,38.231-19.098
			C4099.365,1932.665,4114.069,1937.059,4125.68,1947.132L4125.68,1947.132z M4208.007,2032.856l-89.511-77.442
			c-9.329-8.079-21.127-11.594-32.586-10.782c-11.492,0.845-22.681,6.016-30.76,15.346l-77.443,89.51
			c-8.062,9.329-11.594,21.127-10.767,32.619c0.829,11.459,6.033,22.648,15.364,30.727l89.493,77.442
			c9.33,8.079,21.144,11.596,32.603,10.784c11.477-0.845,22.648-6.018,30.728-15.346l77.442-89.511
			c8.079-9.33,11.594-21.127,10.782-32.62C4222.526,2052.124,4217.337,2040.935,4208.007,2032.856z"/>
		<path fill-rule="evenodd" clip-rule="evenodd" fill="#E6E7E8" d="M3981.375,2205.927l49.708,43.032h-130.21l34.344-39.685
			C3946.998,2195.652,3967.77,2194.164,3981.375,2205.927z"/>
		<path fill="#E6E7E8" d="M4013.776,2155.122l57.938,50.163l0,0h0.017l0.135,0.135h0.017l0,0c7.944,6.897,12.356,16.36,13.048,26.13
			h0.018c0.422,5.881-0.49,11.831-2.79,17.409h-12.303c3.21-5.038,4.564-10.884,4.157-16.597l0,0
			c-0.472-6.897-3.583-13.623-9.109-18.491h-0.017l0,0l-0.17-0.135l-58.124-50.298c-5.661-4.903-12.828-7.032-19.775-6.525
			c-6.945,0.507-13.74,3.65-18.641,9.296l-50.13,57.939l0,0l0,0l-0.168,0.168c-4.903,5.646-7.032,12.812-6.525,19.775l0,0
			c0.102,1.656,0.372,3.28,0.777,4.868h-11.189c-0.235-1.353-0.405-2.705-0.507-4.057h-0.033
			c-0.677-9.702,2.264-19.673,9.026-27.549v-0.035l0,0l0.168-0.168l50.3-58.109c6.863-7.977,16.395-12.371,26.13-13.081
			c9.751-0.677,19.773,2.298,27.717,9.161H4013.776z"/>
		<path fill-rule="evenodd" clip-rule="evenodd" fill="#E6E7E8" d="M3728.883,1912.01l-177.196-153.331
			c-41.51-35.899-46.073-99.211-10.173-140.721l153.329-177.163c35.916-41.509,99.246-46.073,140.722-10.173l177.196,153.329
			c41.492,35.899,46.073,99.213,10.175,140.723l-153.331,177.196C3833.69,1943.347,3770.359,1947.909,3728.883,1912.01z"/>
		<path fill="#E6E7E8" d="M3661.328,1995.639l-177.178-153.329c-21.904-18.931-34.04-45.128-36.001-72.001
			c-1.926-26.907,6.338-54.557,25.286-76.463l153.314-177.194c18.946-21.871,45.109-34.04,72.017-35.968
			c26.89-1.959,54.557,6.322,76.446,25.251l177.178,153.331c21.904,18.929,34.04,45.094,36.001,71.999
			c1.926,26.907-6.322,54.559-25.286,76.463l-153.329,177.196c-18.931,21.871-45.094,34.04-72.001,35.966
			C3710.883,2022.851,3683.216,2014.569,3661.328,1995.639L3661.328,1995.639z M3491.316,1834.026l177.194,153.298
			c19.607,16.968,44.35,24.372,68.451,22.648c24.137-1.758,47.577-12.643,64.53-32.248l153.331-177.161
			c16.97-19.607,24.372-44.384,22.615-68.486c-1.725-24.102-12.61-47.56-32.215-64.495l-177.196-153.331
			c-19.605-16.97-44.349-24.372-68.45-22.648c-24.102,1.758-47.595,12.643-64.53,32.248l-153.331,177.161
			c-16.952,19.605-24.372,44.384-22.615,68.484C3460.842,1793.598,3471.711,1817.058,3491.316,1834.026z"/>
		<path fill-rule="evenodd" clip-rule="evenodd" fill="#E6E7E8" d="M3383.654,1473.551l2.366-36.068
			c0.54-8.449,7.909-14.907,16.36-14.332l36.068,2.366c8.434,0.542,14.906,7.911,14.349,16.36l-2.383,36.068
			c-0.542,8.451-7.909,14.908-16.361,14.334l-36.068-2.368C3389.535,1489.372,3383.079,1482.002,3383.654,1473.551z"/>
		<path fill="#E6E7E8" d="M4074.316,1866.512l-59.713-51.684l0,0h-0.017l-0.168-0.17c-8.146-7.03-12.676-16.766-13.403-26.772
			c-0.727-9.971,2.316-20.18,9.261-28.292h-0.017v-0.035l0.17-0.169l51.854-59.898c7.032-8.146,16.8-12.676,26.805-13.42
			c10.007-0.71,20.317,2.366,28.479,9.431l59.9,51.821c8.146,7.065,12.693,16.8,13.402,26.806c0.744,10.04-2.366,20.35-9.397,28.496
			l-51.854,59.898c-7.03,8.146-16.8,12.677-26.805,13.42C4092.807,1876.652,4082.48,1873.577,4074.316,1866.512L4074.316,1866.512z
			 M4021.618,1806.409l59.865,51.821c5.881,5.071,13.318,7.302,20.518,6.76c7.234-0.507,14.265-3.785,19.335-9.633l51.821-59.9
			c5.069-5.848,7.3-13.283,6.793-20.518c-0.54-7.2-3.785-14.265-9.667-19.335l-59.898-51.819
			c-5.848-5.071-13.285-7.302-20.502-6.762c-7.217,0.507-14.247,3.787-19.318,9.635l-51.684,59.729l0,0v0.035l-0.17,0.17
			c-5.054,5.848-7.284,13.25-6.76,20.485c0.524,7.132,3.718,14.095,9.465,19.166l0,0l0,0L4021.618,1806.409z"/>
		<path fill-rule="evenodd" clip-rule="evenodd" fill="#E6E7E8" d="M3527.315,1478.385l29.24,25.286
			c6.862,5.948,7.606,16.393,1.691,23.256l-25.319,29.24c-5.916,6.828-16.361,7.605-23.223,1.656l-29.24-25.319
			c-6.845-5.916-7.605-16.36-1.674-23.19l25.302-29.238C3510.008,1473.214,3520.455,1472.47,3527.315,1478.385z"/>
		<path fill="#E6E7E8" d="M3530.899,1474.228l29.239,25.319c4.564,3.92,7.1,9.396,7.504,15.009l0,0
			c0.407,5.576-1.317,11.357-5.239,15.921l-0.017,0.033l-25.302,29.206c-3.955,4.599-9.398,7.099-15.009,7.504v0.035
			c-5.611,0.405-11.374-1.319-15.955-5.274l0,0l-29.071-25.149l0,0l0,0l-0.135-0.17h-0.033l0,0
			c-4.564-3.955-7.099-9.431-7.504-15.009l0,0c-0.405-5.544,1.284-11.222,5.104-15.751l0,0v-0.035l0.17-0.17l25.284-29.238
			c3.955-4.529,9.415-7.099,15.026-7.505h-0.017c5.611-0.405,11.392,1.319,15.938,5.274H3530.899L3530.899,1474.228z
			 M3552.973,1507.828l-29.24-25.319c-2.264-1.961-5.171-2.806-7.977-2.603v-0.033c-2.805,0.203-5.543,1.487-7.521,3.785
			l-25.132,29.071l0,0l0,0l-0.17,0.17c-1.961,2.264-2.84,5.171-2.637,7.942l0,0c0.204,2.773,1.421,5.443,3.567,7.37l0,0h0.017
			l0.168,0.17l29.24,25.284c2.281,1.995,5.171,2.84,7.977,2.638l0,0c2.805-0.202,5.543-1.454,7.522-3.752l25.301-29.24
			c1.961-2.264,2.84-5.139,2.637-7.944v-0.033c-0.204-2.806-1.454-5.543-3.737-7.504H3552.973z"/>
		<path fill-rule="evenodd" clip-rule="evenodd" fill="#E6E7E8" d="M3401.991,1569.113l70.058,60.642
			c16.395,14.197,18.219,39.211,4.022,55.641l-60.608,70.039c-14.232,16.395-39.246,18.221-55.641,4.024l-70.073-60.61
			c-16.395-14.197-18.186-39.246-3.99-55.639l60.61-70.04C3360.566,1556.742,3385.58,1554.948,3401.991,1569.113z"/>
		<path fill="#E6E7E8" d="M3384.261,1591.456l70.058,60.642c9.346,8.079,14.552,19.268,15.364,30.727
			c0.845,11.494-2.705,23.29-10.784,32.62l-60.625,70.073c-8.096,9.33-19.251,14.536-30.727,15.346
			c-11.476,0.846-23.273-2.703-32.636-10.782l-70.04-60.61c-9.363-8.079-14.552-19.266-15.381-30.727
			c-0.827-11.492,2.705-23.29,10.784-32.653l60.473-69.871l0,0l0,0l0.169-0.17c8.079-9.363,19.266-14.535,30.727-15.379
			c11.392-0.812,23.121,2.671,32.416,10.647h0.035l0,0L3384.261,1591.456L3384.261,1591.456z M3447.135,1660.38l-69.871-60.438l0,0
			l0,0l-0.168-0.17c-7.065-6.118-15.99-8.789-24.644-8.146c-8.619,0.607-17.002,4.496-23.088,11.424l0,0l0,0l-0.168,0.17
			l-60.642,70.04c-6.085,7.065-8.756,15.988-8.114,24.677c0.627,8.686,4.529,17.137,11.594,23.256l70.058,60.609
			c7.048,6.118,15.971,8.754,24.659,8.146c8.654-0.642,17.137-4.564,23.223-11.629l60.625-70.04
			c6.103-7.03,8.773-15.955,8.147-24.642C3458.121,1674.949,3454.199,1666.5,3447.135,1660.38z"/>
		<path fill-rule="evenodd" clip-rule="evenodd" fill="#E6E7E8" d="M3709.075,2248.96c-9.465-11.899-9.431-29.343,0.845-41.207
			l49.59-57.33c11.627-13.42,32.112-14.906,45.532-3.312l57.297,49.623c13.42,11.594,14.907,32.079,3.295,45.532l-5.798,6.694
			H3709.075z"/>
		<path fill="#E6E7E8" d="M3702.382,2248.96c-3.33-5.308-5.24-11.291-5.678-17.375c-0.694-9.635,2.264-19.573,9.041-27.415
			l0.017-0.035l49.453-57.127l0,0l0,0l0.135-0.168h0.017l0,0c6.812-7.876,16.191-12.238,25.826-12.913h0.017
			c9.566-0.677,19.419,2.231,27.21,8.924l0.017-0.034l0.017,0.034l0.17,0.135l57.295,49.589
			c7.876,6.795,12.236,16.192,12.913,25.826c0.71,9.668-2.248,19.573-9.026,27.414l-0.033,0.035l-2.688,3.11h-14.485l8.889-10.277
			c4.801-5.578,6.93-12.643,6.423-19.47c-0.49-6.828-3.583-13.52-9.161-18.322l-57.125-49.453l0,0l0,0l-0.204-0.17
			c-5.544-4.799-12.574-6.93-19.436-6.423l0,0c-6.76,0.507-13.385,3.55-18.169,8.993h0.017h-0.017l-0.17,0.168l-49.606,57.33
			c-4.799,5.543-6.895,12.608-6.406,19.438c0.49,6.76,3.532,13.385,8.974,18.186H3702.382z"/>
		<path fill="#E6E7E8" d="M3678.72,2248.96l-32.383-28.057c-6.186-5.308-9.633-12.71-10.175-20.282
			c-0.54-7.606,1.809-15.381,7.15-21.566l37.2-42.998c5.341-6.186,12.728-9.6,20.282-10.14c7.605-0.542,15.396,1.791,21.584,7.132
			l42.811,37.048l0,0h0.017l0.152,0.169c6.186,5.341,9.633,12.71,10.173,20.282c0.542,7.504-1.757,15.244-6.997,21.362l0.017,0.034
			h-0.017l-0.135,0.17l-31.876,36.845h-14.569c0.322-0.339,0.642-0.677,0.947-1.049l37.049-42.793h-0.017h0.017l0.135-0.204
			c3.38-3.853,4.834-8.789,4.495-13.555c-0.338-4.732-2.434-9.329-6.203-12.676v0.035l-0.015-0.035l-0.17-0.135l-42.998-37.217
			c-3.887-3.347-8.788-4.799-13.588-4.496c-4.766,0.372-9.465,2.503-12.812,6.39l-37.2,42.998
			c-3.363,3.887-4.817,8.821-4.479,13.588c0.339,4.801,2.502,9.465,6.39,12.811l41.982,36.34H3678.72z"/>
		<path fill-rule="evenodd" clip-rule="evenodd" fill="#E6E7E8" d="M4189.652,1985.735l-30.557-26.468
			c-7.15-6.186-7.944-17.105-1.758-24.237l26.451-30.557c6.203-7.167,17.122-7.944,24.271-1.758l30.541,26.433
			c7.167,6.187,7.944,17.105,1.758,24.271l-26.435,30.557C4207.737,1991.109,4196.818,1991.886,4189.652,1985.735z"/>
		<path fill="#E6E7E8" d="M4186.068,1989.86l-30.371-26.265h-0.017l0,0l-0.17-0.17c-4.732-4.09-7.335-9.735-7.757-15.516h0.017
			c-0.407-5.746,1.317-11.627,5.272-16.293l0,0l0,0l0.169-0.168l26.435-30.559c4.089-4.732,9.735-7.369,15.514-7.774
			c5.78-0.405,11.764,1.352,16.462,5.443l30.558,26.433c4.733,4.09,7.352,9.735,7.776,15.516c0.405,5.813-1.371,11.764-5.443,16.463
			l-0.018,0.033l-26.45,30.558c-4.057,4.699-9.701,7.336-15.499,7.741h-0.018C4196.75,1995.741,4190.802,1993.949,4186.068,1989.86
			L4186.068,1989.86z M4162.695,1955.143l30.541,26.433c2.433,2.096,5.51,3.043,8.501,2.806h0.018
			c2.975-0.203,5.916-1.554,8.012-3.988l26.45-30.557c2.079-2.435,3.008-5.511,2.788-8.519c-0.203-3.01-1.554-5.915-3.987-8.011
			l-30.56-26.468c-2.416-2.096-5.509-3.008-8.484-2.773c-3.008,0.202-5.948,1.556-8.011,3.955l-0.033,0.035l-26.265,30.389l0,0l0,0
			l-0.17,0.168c-2.096,2.433-3.025,5.51-2.805,8.486l0,0c0.22,2.941,1.504,5.779,3.82,7.875l0,0l0,0L4162.695,1955.143z"/>
		<path fill-rule="evenodd" clip-rule="evenodd" fill="#E6E7E8" d="M3601.277,2035.933l42.793,37.048
			c10.04,8.654,11.122,23.932,2.468,33.972l-37.048,42.794c-8.654,10.04-23.967,11.122-33.972,2.468l-42.795-37.048
			c-10.038-8.654-11.137-23.967-2.466-33.972l37.031-42.828C3575.958,2028.361,3591.255,2027.245,3601.277,2035.933z"/>
		<path fill-rule="evenodd" clip-rule="evenodd" fill="#E6E7E8" d="M3659.215,2072.406l32.113,27.786
			c7.522,6.523,8.349,17.982,1.844,25.487l-27.77,32.114c-6.525,7.537-17.984,8.349-25.488,1.824l-32.113-27.785
			c-7.504-6.49-8.349-17.949-1.824-25.454l27.752-32.114C3640.251,2066.76,3651.71,2065.916,3659.215,2072.406z"/>
		<path fill="#E6E7E8" d="M3662.832,2068.282l32.079,27.787c4.901,4.225,7.639,10.107,8.079,16.091v0.033
			c0.407,6.018-1.419,12.203-5.644,17.07l-0.035,0.035l-27.752,32.079c-4.242,4.901-10.107,7.606-16.123,8.046v0.033
			c-6.018,0.405-12.203-1.454-17.105-5.679l-31.928-27.617h-0.016l0,0l-0.152-0.135l-0.017-0.035l0,0
			c-4.901-4.225-7.639-10.107-8.044-16.09c-0.439-5.948,1.352-12.067,5.476-16.935l0,0l0,0l0.168-0.202l27.787-32.079
			c4.224-4.901,10.107-7.639,16.09-8.046v-0.033C3651.71,2062.164,3657.93,2064.057,3662.832,2068.282L3662.832,2068.282z
			 M3687.745,2104.35l-32.096-27.787c-2.62-2.264-5.933-3.245-9.143-3.008l0,0c-3.212,0.202-6.355,1.656-8.586,4.259l-0.035,0.033
			l-27.617,31.911v0.033l0,0l-0.17,0.17c-2.246,2.603-3.245,5.916-3.008,9.128c0.237,3.143,1.624,6.219,4.125,8.449l0,0l0,0
			l0.169,0.169l32.112,27.787c2.62,2.231,5.916,3.245,9.128,3.008h0.033c3.212-0.237,6.322-1.656,8.586-4.259v-0.035l27.787-32.112
			c2.265-2.603,3.262-5.916,3.025-9.128h-0.017C3691.818,2109.759,3690.348,2106.614,3687.745,2104.35z"/>
		<path fill-rule="evenodd" clip-rule="evenodd" fill="#E6E7E8" d="M3619.092,2147.043l20.857,18.017
			c4.867,4.225,5.408,11.696,1.182,16.563l-18.017,20.824c-4.225,4.901-11.696,5.441-16.563,1.217l-20.857-18.052
			c-4.868-4.225-5.408-11.661-1.184-16.53l18.051-20.857C3606.771,2143.359,3614.223,2142.817,3619.092,2147.043z"/>
		<path fill="#E6E7E8" d="M3491.688,2090.997l-63.382-54.829l0,0l0,0l-0.185-0.168c-8.586-7.437-13.335-17.679-14.079-28.226
			c-0.777-10.445,2.418-21.229,9.735-29.78l0,0l0,0l0.17-0.17l54.979-63.583c7.437-8.551,17.697-13.353,28.209-14.095
			c10.547-0.779,21.399,2.466,29.985,9.903l63.566,54.999c8.569,7.435,13.353,17.677,14.112,28.224
			c0.744,10.547-2.501,21.397-9.938,29.983l-54.964,63.55c-7.437,8.553-17.695,13.318-28.225,14.097
			C3511.124,2101.679,3500.273,2098.4,3491.688,2090.997L3491.688,2090.997z M3435.303,2027.719l63.55,54.997
			c6.288,5.441,14.265,7.809,22.006,7.267c7.741-0.574,15.296-4.057,20.755-10.377l54.964-63.516
			c5.443-6.323,7.842-14.265,7.267-22.006c-0.557-7.774-4.057-15.314-10.343-20.755l-63.55-54.999
			c-6.288-5.409-14.265-7.807-22.006-7.233c-7.741,0.54-15.296,4.055-20.722,10.343l-54.827,63.348v0.033l0,0l-0.17,0.17
			c-5.441,6.288-7.842,14.232-7.267,21.971c0.54,7.674,3.989,15.144,10.157,20.587h0.017l0,0L3435.303,2027.719z"/>
		<path fill-rule="evenodd" clip-rule="evenodd" fill="#E6E7E8" d="M3867.07,2248.96l1.014-1.184
			c3.937-4.564,10.919-5.071,15.481-1.116l2.637,2.3H3867.07z"/>
		<path fill="#E6E7E8" d="M3859.82,2248.96l4.107-4.767c2.973-3.415,7.065-5.341,11.257-5.645h0.033
			c4.192-0.27,8.519,1.014,11.933,3.955l7.42,6.457H3859.82z"/>
		<path fill-rule="evenodd" clip-rule="evenodd" fill="#E6E7E8" d="M3643.396,2040.53l-21.482-18.591
			c-5.021-4.327-5.595-12.001-1.234-17.037l18.591-21.499c4.327-5.004,12.017-5.578,17.053-1.217l21.483,18.591
			c5.019,4.361,5.576,12.034,1.232,17.037l-18.592,21.499C3656.106,2044.349,3648.432,2044.89,3643.396,2040.53z"/>
		<path fill-rule="evenodd" clip-rule="evenodd" fill="#E6E7E8" d="M3445.918,1902.817l10.479,9.091
			c2.468,2.096,2.738,5.883,0.607,8.316l-9.059,10.479c-2.129,2.468-5.881,2.738-8.349,0.607l-10.479-9.059
			c-2.468-2.129-2.738-5.881-0.607-8.349l9.093-10.479C3439.715,1900.956,3443.467,1900.721,3445.918,1902.817z"/>
		<path fill-rule="evenodd" clip-rule="evenodd" fill="#E6E7E8" d="M3400.961,1935.368l25.132,21.736
			c5.898,5.104,6.541,14.095,1.437,19.978l-21.734,25.115c-5.088,5.883-14.062,6.525-19.945,1.421l-25.132-21.736
			c-5.865-5.071-6.525-14.062-1.436-19.943l21.734-25.116C3386.12,1930.941,3395.095,1930.297,3400.961,1935.368z"/>
		<path fill-rule="evenodd" clip-rule="evenodd" fill="#E6E7E8" d="M3232.841,1550.758l32.096,27.785
			c7.537,6.525,18.996,5.68,25.486-1.824l27.787-32.113c6.508-7.504,5.678-18.998-1.826-25.488l-32.112-27.785
			c-7.504-6.49-18.981-5.68-25.488,1.859L3231,1525.27C3224.509,1532.809,3225.319,1544.268,3232.841,1550.758z"/>
		<path fill="#E6E7E8" d="M3236.441,1546.634l32.079,27.785c2.62,2.233,5.95,3.212,9.143,3.01h0.017
			c3.212-0.237,6.355-1.691,8.621-4.294l27.752-32.112c2.264-2.603,3.262-5.916,3.025-9.128c-0.254-3.245-1.674-6.388-4.277-8.619
			h-0.033l-32.08-27.787c-2.601-2.266-5.948-3.245-9.126-3.008h-0.017c-3.228,0.235-6.371,1.689-8.602,4.292l-27.787,32.079
			c-2.265,2.638-3.245,5.95-3.008,9.161C3232.384,1541.226,3233.821,1544.369,3236.441,1546.634L3236.441,1546.634z
			 M3261.354,1582.702l-32.096-27.787c-4.886-4.259-7.624-10.107-8.063-16.123c-0.438-6.018,1.421-12.203,5.646-17.072l0.017-0.033
			l27.769-32.079c4.259-4.901,10.107-7.64,16.123-8.079v0.033c6.018-0.44,12.203,1.419,17.105,5.611v0.035l32.114,27.787
			c4.884,4.225,7.605,10.106,8.044,16.089c0.44,6.018-1.419,12.203-5.646,17.105l0,0l-27.785,32.113
			c-4.226,4.867-10.107,7.605-16.125,8.044h0.017c-6.016,0.44-12.219-1.419-17.087-5.644H3261.354z"/>
		<path fill="#E6E7E8" d="M3483.912,1408.007l-63.583-54.997c-6.27-5.443-14.247-7.809-21.989-7.234
			c-7.757,0.542-15.296,4.057-20.737,10.344l-54.829,63.346v0.035l0,0l-0.17,0.168c-5.441,6.288-7.809,14.266-7.267,21.973
			c0.574,7.672,4.005,15.177,10.175,20.585l0,0l0,0l0.202,0.17l63.533,54.997c6.288,5.443,14.247,7.809,21.989,7.267
			c7.774-0.575,15.313-4.09,20.755-10.377l54.981-63.548c5.426-6.255,7.825-14.232,7.267-21.973h0.017
			C3493.7,1421.022,3490.2,1413.45,3483.912,1408.007L3483.912,1408.007z M3427.529,1344.729l63.533,54.997
			c8.569,7.402,13.335,17.679,14.113,28.226l0,0c0.761,10.545-2.484,21.397-9.903,29.983l-54.999,63.55
			c-7.42,8.552-17.677,13.351-28.225,14.095c-10.512,0.777-21.397-2.468-29.983-9.905l-63.365-54.827h0.017h-0.033l-0.17-0.17
			c-8.586-7.437-13.353-17.679-14.097-28.226c-0.742-10.478,2.435-21.227,9.753-29.781h-0.017l0.017-0.033l0.152-0.17l54.997-63.516
			c7.419-8.586,17.679-13.385,28.226-14.13C3408.093,1334.047,3418.926,1337.292,3427.529,1344.729z"/>
		<path fill-rule="evenodd" clip-rule="evenodd" fill="#E6E7E8" d="M4233.545,1853.971l25.133,21.736
			c5.881,5.069,14.839,4.427,19.943-1.454l21.736-25.116c5.104-5.881,4.444-14.874-1.454-19.943l-25.116-21.736
			c-5.881-5.104-14.856-4.462-19.943,1.419l-21.736,25.116C4227.005,1839.909,4227.647,1848.867,4233.545,1853.971z"/>
		<path fill="#E6E7E8" d="M4237.128,1849.814l25.133,21.734c1.791,1.556,4.09,2.266,6.288,2.096c2.196-0.17,4.36-1.182,5.916-2.975
			l21.752-25.114c1.554-1.793,2.231-4.091,2.079-6.288l0,0c-0.168-2.198-1.182-4.394-2.975-5.95l-25.115-21.734
			c-1.791-1.556-4.091-2.231-6.288-2.063c-2.198,0.135-4.394,1.149-5.933,2.942l-21.734,25.149
			c-1.556,1.791-2.249,4.057-2.081,6.288v-0.035C4234.339,1846.094,4235.354,1848.258,4237.128,1849.814L4237.128,1849.814z
			 M4255.094,1879.83l-25.131-21.734c-4.107-3.517-6.373-8.418-6.728-13.42h0.017c-0.372-5.003,1.182-10.175,4.699-14.232
			l21.734-25.149c3.549-4.09,8.418-6.355,13.455-6.693c5.002-0.372,10.175,1.182,14.23,4.699l25.15,21.734
			c4.055,3.55,6.338,8.417,6.693,13.42v0.035c0.372,5.002-1.184,10.175-4.699,14.23l-21.751,25.116
			c-3.532,4.09-8.434,6.355-13.437,6.727C4264.322,1884.901,4259.151,1883.379,4255.094,1879.83z"/>
		<path fill-rule="evenodd" clip-rule="evenodd" fill="#E6E7E8" d="M3075.843,1531.423l-72.474-62.706
			c-16.985-14.704-18.861-40.597-4.157-57.565l62.704-72.474c14.704-16.97,40.597-18.863,57.567-4.159l72.474,62.706
			c16.985,14.704,18.846,40.597,4.157,57.565l-62.704,72.474C3118.706,1544.234,3092.812,1546.127,3075.843,1531.423z"/>
		<path fill="#E6E7E8" d="M3052.215,1484.538l-72.289-62.569l0,0h-0.017l-0.168-0.17c-9.635-8.316-14.958-19.843-15.821-31.674
			c-0.844-11.764,2.738-23.83,10.952-33.398v-0.033l0,0l0.17-0.17l62.704-72.474c8.333-9.633,19.86-15.009,31.674-15.853v0.033
			c11.831-0.878,24,2.773,33.617,11.121l72.491,62.705c9.6,8.314,14.941,19.843,15.803,31.639h0.016
			c0.846,11.831-2.771,24-11.12,33.635l-62.571,72.304h0.017h-0.017l-0.135,0.203c-8.349,9.633-19.876,14.941-31.674,15.82
			c-11.763,0.845-23.847-2.738-33.43-10.952l0,0h-0.017L3052.215,1484.538L3052.215,1484.538z M2986.906,1413.518l72.306,62.569l0,0
			h0.033l0.17,0.17c7.318,6.321,16.598,9.093,25.623,8.451c8.956-0.644,17.677-4.666,24.033-11.899h-0.016h0.016l0.135-0.17
			l62.738-72.474c6.355-7.335,9.128-16.63,8.451-25.656h0.017c-0.642-9.025-4.716-17.814-12.051-24.169h-0.017l-72.474-62.738
			c-7.352-6.322-16.613-9.128-25.639-8.451l0,0c-9.058,0.642-17.849,4.732-24.202,12.068l-62.536,72.304l0,0h-0.017l-0.152,0.202
			c-6.355,7.335-9.126,16.598-8.484,25.623c0.642,8.958,4.664,17.679,11.899,24l0,0h0.016L2986.906,1413.518z"/>
		<path fill-rule="evenodd" clip-rule="evenodd" fill="#E6E7E8" d="M2741.784,1156.919l-54.354-47.029
			c-12.726-11.019-14.13-30.44-3.119-43.166l47.046-54.355c11.011-12.745,30.431-14.147,43.167-3.128l54.355,47.038
			c12.726,11.02,14.13,30.44,3.11,43.183l-47.037,54.338C2773.948,1166.519,2754.52,1167.938,2741.784,1156.919z"/>
		<path fill="#E6E7E8" d="M2723.471,1114.302l-54.355-47.037c-7.522-6.506-11.688-15.481-12.354-24.692
			c-0.659-9.213,2.179-18.694,8.669-26.198v-0.017l47.037-54.355c6.507-7.504,15.49-11.679,24.677-12.338
			c9.211-0.677,18.709,2.163,26.198,8.654l0.024,0.017l54.355,47.02c7.522,6.508,11.696,15.498,12.356,24.692
			c0.659,9.213-2.181,18.711-8.671,26.215l-47.036,54.355c-6.508,7.504-15.483,11.679-24.694,12.338
			c-9.211,0.677-18.685-2.163-26.189-8.654H2723.471L2723.471,1114.302z M2676.283,1058.965l54.355,47.038
			c5.223,4.514,11.831,6.473,18.237,6.018c6.423-0.457,12.693-3.38,17.198-8.57l47.053-54.355
			c4.497-5.206,6.473-11.831,6.018-18.237c-0.474-6.422-3.38-12.693-8.586-17.189v-0.016l-54.364-47.02
			c-5.206-4.514-11.823-6.508-18.236-6.035c-6.423,0.457-12.686,3.365-17.172,8.553l-0.026,0.017l-47.037,54.355
			c-4.503,5.239-6.481,11.849-6.025,18.237C2668.17,1048.2,2671.069,1054.454,2676.283,1058.965z"/>
		<path fill-rule="evenodd" clip-rule="evenodd" fill="#E6E7E8" d="M2902.399,1121.789l54.12,46.826
			c12.676,10.985,14.062,30.32,3.11,42.998l-46.835,54.118c-10.969,12.676-30.305,14.062-42.98,3.076l-54.118-46.816
			c-12.678-10.952-14.062-30.322-3.11-42.965l46.85-54.126C2870.388,1112.206,2889.723,1110.837,2902.399,1121.789z"/>
		<path fill="#E6E7E8" d="M2845.391,1138.724l54.118,46.826c7.471,6.456,11.646,15.414,12.288,24.575v0.035
			c0.642,9.161-2.181,18.624-8.621,26.096l-46.85,54.118c-6.456,7.471-15.396,11.629-24.574,12.271v0.035
			c-9.195,0.675-18.643-2.163-26.13-8.654l-54.109-46.818c-7.48-6.456-11.646-15.414-12.305-24.574v-0.035
			c-0.659-9.161,2.172-18.624,8.636-26.096l46.826-54.144c6.457-7.454,15.398-11.611,24.609-12.271v-0.017
			C2828.439,1129.411,2837.904,1132.251,2845.391,1138.724L2845.391,1138.724z M2892.344,1193.832l-54.137-46.826
			c-5.171-4.495-11.762-6.456-18.117-5.983l-0.035-0.016c-6.388,0.455-12.608,3.345-17.087,8.534l-46.842,54.128
			c-4.479,5.206-6.457,11.764-5.983,18.152l0,0c0.455,6.388,3.354,12.608,8.534,17.104l54.111,46.818
			c5.206,4.495,11.764,6.456,18.152,5.983l0.034,0.033c6.355-0.472,12.591-3.345,17.07-8.552l46.835-54.119
			c4.477-5.206,6.473-11.764,5.999-18.152l0,0C2900.406,1204.548,2897.498,1198.328,2892.344,1193.832z"/>
		<path fill-rule="evenodd" clip-rule="evenodd" fill="#E6E7E8" d="M2969.025,1228.885l40.597,35.121
			c9.5,8.214,10.547,22.716,2.333,32.248l-35.122,40.563c-8.214,9.533-22.733,10.547-32.231,2.333l-40.58-35.121
			c-9.516-8.214-10.582-22.716-2.333-32.248l35.121-40.563C2945.025,1221.686,2959.527,1220.671,2969.025,1228.885z"/>
		<path fill="#E6E7E8" d="M2972.642,1224.728l40.564,35.121c5.898,5.104,9.194,12.169,9.701,19.369v0.035
			c0.507,7.232-1.724,14.67-6.795,20.552v0.033l-35.137,40.564c-5.106,5.916-12.153,9.194-19.388,9.701
			c-7.233,0.542-14.704-1.689-20.585-6.795l-40.58-35.121c-5.9-5.104-9.178-12.169-9.685-19.403
			c-0.542-7.233,1.691-14.669,6.795-20.552v-0.033l35.122-40.564c5.086-5.881,12.168-9.161,19.385-9.701l0,0
			C2959.274,1217.392,2966.726,1219.657,2972.642,1224.728L2972.642,1224.728z M3006.04,1268.164l-40.58-35.121
			c-3.6-3.143-8.181-4.495-12.625-4.157v-0.033c-4.429,0.338-8.756,2.332-11.866,5.914l-0.033,0.035l-35.104,40.597
			c-3.127,3.583-4.479,8.181-4.174,12.608c0.337,4.429,2.331,8.789,5.948,11.899l40.564,35.121c3.615,3.11,8.179,4.462,12.608,4.159
			c4.462-0.339,8.789-2.333,11.898-5.915v-0.035l35.122-40.597c3.125-3.617,4.512-8.181,4.175-12.575l0,0
			C3011.651,1275.601,3009.657,1271.274,3006.04,1268.164z"/>
		<path fill-rule="evenodd" clip-rule="evenodd" fill="#E6E7E8" d="M2864.337,1283.342l26.333,22.816
			c6.186,5.341,6.862,14.739,1.521,20.924l-22.8,26.333c-5.324,6.186-14.754,6.862-20.924,1.521l-26.349-22.783
			c-6.187-5.341-6.862-14.772-1.521-20.957l22.816-26.333C2848.754,1278.678,2858.152,1278.001,2864.337,1283.342z"/>
		<path fill="#E6E7E8" d="M2867.92,1279.185l26.367,22.816c4.225,3.652,6.591,8.721,6.93,13.892l0,0
			c0.37,5.206-1.217,10.547-4.869,14.739v0.035l-22.816,26.366c-3.652,4.192-8.723,6.592-13.894,6.963
			c-5.171,0.372-10.512-1.25-14.737-4.867l-0.034-0.035l-26.163-22.648l0,0l0,0l-0.17-0.135v-0.033l0,0
			c-4.259-3.652-6.59-8.721-6.963-13.894c-0.372-5.104,1.167-10.377,4.715-14.567l0,0l0.017-0.035l0.135-0.135l22.818-26.367
			c3.667-4.257,8.721-6.59,13.91-6.963c5.189-0.372,10.53,1.217,14.739,4.869H2867.92L2867.92,1279.185z M2887.12,1310.317
			l-26.365-22.818c-1.961-1.689-4.429-2.434-6.795-2.264c-2.4,0.168-4.732,1.284-6.422,3.211l-22.648,26.163h0.017l-0.017,0.035
			l-0.152,0.168c-1.674,1.928-2.416,4.396-2.231,6.762c0.169,2.366,1.184,4.597,3.008,6.253h-0.016h0.033l0.17,0.17l26.348,22.816
			c1.944,1.656,4.412,2.401,6.778,2.231c2.4-0.203,4.733-1.25,6.39-3.178l0.033-0.033l22.818-26.333
			c1.656-1.961,2.401-4.429,2.231-6.795l0,0C2890.113,1314.307,2889.047,1311.974,2887.12,1310.317z"/>
		<path fill-rule="evenodd" clip-rule="evenodd" fill="#E6E7E8" d="M3110.322,1718.624l-48.981-42.389
			c-11.459-9.905-12.71-27.415-2.805-38.874l42.389-48.981c9.922-11.459,27.415-12.743,38.874-2.806l48.981,42.389
			c11.459,9.905,12.743,27.414,2.805,38.873l-42.388,48.981C3139.291,1727.278,3121.781,1728.527,3110.322,1718.624z"/>
		<path fill="#E6E7E8" d="M3139.68,1714.365l-48.964-42.356c-6.88-5.983-10.717-14.23-11.307-22.613
			c-0.609-8.451,1.977-17.172,7.942-24.034l42.373-48.981c5.948-6.862,14.197-10.682,22.614-11.289
			c8.434-0.609,17.139,1.994,24.017,7.944l48.963,42.354c6.88,5.95,10.682,14.197,11.291,22.615
			c0.607,8.451-1.978,17.138-7.927,24.033l-42.373,48.948c-5.948,6.895-14.197,10.715-22.614,11.324
			c-8.451,0.608-17.139-1.995-24-7.944H3139.68L3139.68,1714.365z M3097.882,1663.694l48.981,42.389
			c4.597,3.955,10.395,5.711,16.023,5.274c5.646-0.407,11.155-2.942,15.144-7.539l42.356-48.981
			c3.972-4.562,5.711-10.377,5.306-16.021c-0.405-5.646-2.94-11.156-7.537-15.111l0,0l-48.981-42.389
			c-4.581-3.955-10.377-5.713-16.023-5.308c-5.661,0.407-11.172,2.942-15.109,7.539h-0.035l-42.371,49.014
			c-3.972,4.564-5.696,10.377-5.291,16.023C3090.749,1654.229,3093.285,1659.738,3097.882,1663.694L3097.882,1663.694z"/>
		<path fill-rule="evenodd" clip-rule="evenodd" fill="#E6E7E8" d="M3219.946,1405.744l-22.548-19.505
			c-5.239-4.564-5.846-12.608-1.284-17.882l19.505-22.513c4.564-5.274,12.608-5.848,17.882-1.284l22.513,19.505
			c5.273,4.562,5.848,12.608,1.284,17.882l-19.47,22.511C3233.263,1409.731,3225.202,1410.306,3219.946,1405.744z"/>
		<path fill="#E6E7E8" d="M3216.328,1409.866l-22.496-19.47c-3.769-3.245-5.865-7.807-6.203-12.406h-0.017
			c-0.32-4.63,1.099-9.431,4.344-13.183v-0.033l19.503-22.513c3.28-3.787,7.809-5.883,12.423-6.22h0.017
			c4.631-0.305,9.398,1.116,13.15,4.361h0.033l22.513,19.504c3.785,3.28,5.881,7.809,6.22,12.44
			c0.337,4.597-1.099,9.396-4.361,13.183l-19.488,22.513c-3.261,3.752-7.792,5.881-12.421,6.186v0.033
			c-4.632,0.305-9.398-1.115-13.185-4.36L3216.328,1409.866L3216.328,1409.866z M3201.015,1382.114l22.513,19.47
			c1.487,1.284,3.38,1.859,5.206,1.724h0.017c1.841-0.1,3.633-0.947,4.901-2.433l0.016-0.033l19.47-22.513
			c1.302-1.454,1.861-3.38,1.726-5.206c-0.12-1.859-0.947-3.65-2.401-4.901l-0.035-0.035l-22.529-19.47
			c-1.504-1.284-3.397-1.859-5.223-1.724h0.017c-1.843,0.135-3.667,0.947-4.919,2.433h-0.017l-19.486,22.513
			c-1.286,1.488-1.861,3.415-1.724,5.241h-0.017c0.152,1.859,0.962,3.65,2.451,4.934H3201.015z"/>
		<path fill-rule="evenodd" clip-rule="evenodd" fill="#E6E7E8" d="M2895.047,1148.696l-27.16-23.51
			c-6.355-5.511-7.065-15.229-1.556-21.584l23.494-27.16c5.509-6.355,15.211-7.047,21.566-1.554l27.177,23.51
			c6.355,5.509,7.065,15.211,1.554,21.565l-23.493,27.145C2911.12,1153.495,2901.42,1154.189,2895.047,1148.696z"/>
		<path fill="#E6E7E8" d="M2891.465,1152.838l-27.16-23.51c-4.327-3.737-6.727-8.925-7.099-14.214
			c-0.389-5.308,1.251-10.767,4.969-15.076v-0.017l23.527-27.16c3.735-4.327,8.891-6.727,14.197-7.117
			c5.306-0.388,10.767,1.251,15.094,5.003l26.991,23.34l0,0l0,0l0.204,0.17c4.292,3.718,6.693,8.906,7.097,14.197l-0.033,0.017
			c0.37,5.239-1.201,10.614-4.801,14.889l0,0l-0.033,0.017l-0.137,0.17l-23.526,27.177c-3.719,4.31-8.891,6.701-14.197,7.073v0.033
			C2901.25,1158.203,2895.792,1156.581,2891.465,1152.838L2891.465,1152.838z M2871.47,1121.029l27.16,23.51
			c2.028,1.757,4.616,2.536,7.117,2.349l0.017,0.017c2.501-0.187,4.952-1.319,6.71-3.363l23.358-26.992l0,0l0,0l0.168-0.203
			c1.759-2.011,2.535-4.599,2.333-7.082v-0.017c-0.17-2.433-1.251-4.799-3.177-6.54h0.017l-0.017-0.017l-0.17-0.152l-27.177-23.51
			c-2.028-1.757-4.597-2.536-7.098-2.349c-2.518,0.185-4.969,1.334-6.727,3.345l-23.527,27.162
			c-1.757,2.061-2.501,4.647-2.331,7.132C2868.292,1116.837,2869.424,1119.271,2871.47,1121.029z"/>
		<path fill-rule="evenodd" clip-rule="evenodd" fill="#E6E7E8" d="M2645.354,974.543l13.25,11.476
			c3.11,2.688,3.448,7.419,0.768,10.53l-11.483,13.268c-2.679,3.093-7.421,3.43-10.53,0.744l-13.252-11.459
			c-3.11-2.705-3.456-7.437-0.777-10.53l11.477-13.268C2637.51,972.21,2642.243,971.855,2645.354,974.543z"/>
		<g>
			<path fill="#E6E7E8" d="M2648.936,970.402l13.259,11.476c2.679,2.316,4.183,5.561,4.429,8.858
				c0.235,3.312-0.786,6.708-3.093,9.379l-0.009,0.035l-11.476,13.25c-2.333,2.688-5.57,4.192-8.874,4.429
				c-3.304,0.237-6.71-0.777-9.398-3.11l-13.259-11.476c-2.695-2.333-4.183-5.578-4.436-8.856c-0.237-3.313,0.786-6.71,3.101-9.398
				l0.009-0.017l11.322-13.081l0,0v-0.017l0.137-0.135l0.009-0.017h0.007c2.342-2.688,5.578-4.192,8.873-4.427
				c3.229-0.237,6.558,0.727,9.213,2.94l0,0h0.016L2648.936,970.402L2648.936,970.402z M2655.03,990.159l-13.091-11.307l0,0h-0.009
				l-0.177-0.168c-0.398-0.355-0.938-0.507-1.454-0.474c-0.422,0.035-0.862,0.203-1.192,0.525l-0.144,0.152l-11.477,13.268
				c-0.363,0.405-0.523,0.962-0.481,1.454c0.043,0.49,0.254,0.997,0.668,1.334l0.009,0.017l13.268,11.476
				c0.405,0.355,0.938,0.507,1.445,0.473c0.49-0.033,1.005-0.27,1.352-0.659v-0.016l11.476-13.285
				c0.355-0.407,0.524-0.929,0.49-1.436C2655.672,991.023,2655.444,990.516,2655.03,990.159L2655.03,990.159z M2639.116,978.7
				l-0.008,0.035L2639.116,978.7z"/>
		</g>
		<path fill-rule="evenodd" clip-rule="evenodd" fill="#E6E7E8" d="M2588.513,1015.698l31.774,27.5
			c7.446,6.44,8.249,17.78,1.817,25.234l-27.491,31.759c-6.438,7.452-17.788,8.264-25.225,1.824l-31.774-27.482
			c-7.446-6.455-8.257-17.797-1.817-25.234l27.491-31.774C2569.727,1010.087,2581.077,1009.275,2588.513,1015.698z"/>
		<path fill="#E6E7E8" d="M2592.096,1011.558l31.767,27.482c4.858,4.225,7.555,10.023,7.994,15.988h0.009
			c0.423,5.966-1.412,12.119-5.619,16.985l-27.491,31.776c-4.209,4.851-10.031,7.555-15.981,7.977
			c-5.974,0.422-12.117-1.402-16.977-5.594l-31.598-27.347l0,0l-0.009-0.017l-0.177-0.152c-4.868-4.207-7.563-10.022-7.987-15.971
			l0.017-0.017c-0.422-5.898,1.352-11.966,5.434-16.765v-0.017h0.009l0.159-0.17l27.338-31.589l-0.009-0.017l0.009-0.016l0.17-0.17
			c4.209-4.868,10.014-7.555,15.964-7.994l0.016,0.017c5.891-0.424,11.959,1.369,16.776,5.458v-0.017l0.017,0.017L2592.096,1011.558
			L2592.096,1011.558z M2616.688,1047.339l-31.58-27.33l0,0h-0.017l-0.177-0.17c-2.57-2.214-5.831-3.212-8.984-2.975h-0.007
			c-3.094,0.237-6.12,1.606-8.333,4.057h0.017l-0.017,0.017l-0.161,0.168l-27.33,31.589v0.017v0.017l-0.168,0.168
			c-2.224,2.553-3.204,5.815-2.984,8.975h0.017c0.229,3.11,1.589,6.118,4.057,8.332l0,0h0.007l0.178,0.17l31.766,27.499
			c2.57,2.214,5.839,3.195,8.993,2.958c3.178-0.237,6.279-1.656,8.51-4.226l27.482-31.774c2.222-2.568,3.193-5.831,2.967-8.991
			l0.007-0.017C2620.71,1052.68,2619.265,1049.57,2616.688,1047.339z"/>
		<path fill-rule="evenodd" clip-rule="evenodd" fill="#E6E7E8" d="M3085.748,1503.603l23.188,20.078
			c5.443,4.699,6.018,12.98,1.336,18.389l-20.062,23.19c-4.699,5.441-12.98,6.016-18.423,1.352l-23.155-20.08
			c-5.441-4.699-6.051-12.98-1.352-18.422l20.08-23.19C3072.04,1499.512,3080.322,1498.905,3085.748,1503.603z"/>
		<path fill="#E6E7E8" d="M3089.348,1499.479l23.171,20.045c3.854,3.312,6,7.944,6.34,12.676c0.355,4.732-1.116,9.633-4.446,13.453
			l-20.045,23.19c-3.345,3.852-7.977,5.983-12.71,6.355c-4.714,0.337-9.599-1.116-13.453-4.462l-23.173-20.045
			c-3.853-3.347-5.999-7.979-6.338-12.71c-0.337-4.699,1.116-9.6,4.446-13.455l19.926-23.018h-0.017l0,0l0.152-0.17
			c3.347-3.854,7.979-5.983,12.677-6.321c4.697-0.339,9.463,1.082,13.283,4.292v-0.033l0.017,0.033L3089.348,1499.479
			L3089.348,1499.479z M3105.353,1527.806l-23.02-19.876l0,0v-0.035l-0.17-0.135c-1.572-1.352-3.565-1.961-5.509-1.826
			c-1.826,0.135-3.652,0.947-5.004,2.401l0,0l0,0l-0.168,0.203l-20.045,23.155c-1.354,1.589-1.961,3.583-1.826,5.511
			c0.135,1.926,1.014,3.82,2.568,5.171l0.035,0.033l23.188,20.045c1.556,1.353,3.55,1.961,5.476,1.793
			c1.928-0.137,3.82-0.981,5.173-2.57l20.078-23.188c1.352-1.556,1.961-3.584,1.826-5.511
			C3107.804,1531.051,3106.942,1529.157,3105.353,1527.806z"/>
		<path fill-rule="evenodd" clip-rule="evenodd" fill="#E6E7E8" d="M2919.809,1449.687l-25.995-22.479
			c-6.083-5.273-6.76-14.569-1.487-20.654l22.479-25.994c5.273-6.085,14.569-6.76,20.655-1.488l25.994,22.48
			c6.085,5.273,6.762,14.569,1.488,20.653l-22.496,25.995C2935.189,1454.283,2925.892,1454.96,2919.809,1449.687z"/>
		<path fill="#E6E7E8" d="M2916.226,1453.845l-25.995-22.513c-4.174-3.617-6.49-8.621-6.862-13.759
			c-0.372-5.137,1.217-10.445,4.801-14.602l22.511-25.995c3.617-4.19,8.621-6.523,13.759-6.895
			c5.137-0.372,10.445,1.217,14.602,4.834l25.995,22.479c4.192,3.652,6.523,8.654,6.895,13.792h-0.017
			c0.355,5.138-1.199,10.445-4.816,14.604l-22.496,25.994c-3.617,4.192-8.654,6.49-13.775,6.862
			C2925.689,1459.017,2920.383,1457.428,2916.226,1453.845L2916.226,1453.845z M2897.397,1423.051l25.994,22.479
			c1.911,1.656,4.327,2.366,6.66,2.196c2.331-0.168,4.632-1.217,6.253-3.11l22.513-25.994c1.622-1.893,2.366-4.327,2.196-6.66
			h-0.033c-0.17-2.331-1.217-4.63-3.11-6.253l-25.995-22.513c-1.892-1.622-4.327-2.366-6.658-2.197
			c-2.333,0.168-4.614,1.25-6.253,3.143l-22.48,25.995c-1.656,1.892-2.366,4.327-2.196,6.658
			C2894.44,1419.129,2895.504,1421.427,2897.397,1423.051z"/>
		<path fill-rule="evenodd" clip-rule="evenodd" fill="#E6E7E8" d="M2741.692,1317.45l-19.488-16.868
			c-4.573-3.955-5.071-10.919-1.116-15.481l16.869-19.505c3.946-4.529,10.9-5.036,15.472-1.116l19.505,16.902
			c4.562,3.922,5.069,10.884,1.115,15.481l-16.876,19.47C2753.227,1320.897,2746.254,1321.404,2741.692,1317.45z"/>
		<path fill="#E6E7E8" d="M2738.108,1321.607l-19.486-16.868c-3.432-2.975-5.341-7.065-5.646-11.256l0.017-0.033
			c-0.287-4.192,0.997-8.519,3.946-11.933l16.867-19.471c2.958-3.448,7.065-5.341,11.257-5.646
			c4.192-0.338,8.527,0.981,11.958,3.956l19.497,16.868c3.415,2.941,5.306,7.065,5.611,11.257c0.305,4.192-0.997,8.552-3.955,11.966
			l-16.859,19.47c-2.958,3.413-7.065,5.341-11.248,5.644l-0.009-0.033C2745.858,1325.866,2741.531,1324.547,2738.108,1321.607
			L2738.108,1321.607z M2725.787,1296.458l19.505,16.835c1.132,1.014,2.577,1.452,3.98,1.352l0,0
			c1.402-0.135,2.78-0.777,3.761-1.893l16.859-19.47c0.997-1.149,1.419-2.636,1.334-4.022c-0.1-1.386-0.76-2.773-1.876-3.752
			l-19.503-16.868c-1.116-0.981-2.586-1.421-3.981-1.319c-1.412,0.102-2.788,0.744-3.77,1.893l-16.867,19.47
			c-0.979,1.149-1.428,2.603-1.319,3.99h0.009C2724.021,1294.092,2724.655,1295.478,2725.787,1296.458z"/>
		<path fill-rule="evenodd" clip-rule="evenodd" fill="#E6E7E8" d="M2945.735,1204.616l-13.859-11.966
			c-3.245-2.807-3.616-7.776-0.81-11.021l11.999-13.858c2.806-3.245,7.776-3.584,11.004-0.779l13.86,11.966
			c3.261,2.805,3.6,7.776,0.795,11.021l-12.001,13.858C2953.916,1207.082,2948.98,1207.421,2945.735,1204.616z"/>
		<path fill="#E6E7E8" d="M2942.152,1208.773l-13.86-12.001c-2.771-2.366-4.292-5.679-4.547-9.059h-0.017
			c-0.235-3.38,0.812-6.895,3.212-9.668l12.001-13.86c2.366-2.738,5.678-4.292,9.058-4.529l0,0c3.38-0.27,6.895,0.777,9.668,3.178
			l13.842,12.001c2.755,2.366,4.31,5.678,4.547,9.059l0,0c0.253,3.415-0.812,6.895-3.195,9.668l-11.848,13.69h0.035l0,0l-0.17,0.17
			c-2.399,2.771-5.711,4.292-9.093,4.529c-3.328,0.237-6.726-0.744-9.464-3.008l0,0v-0.035L2942.152,1208.773L2942.152,1208.773z
			 M2935.459,1188.49l13.69,11.831l0,0l0,0l0.17,0.17c0.473,0.405,1.097,0.575,1.689,0.54c0.507-0.033,1.014-0.235,1.419-0.608l0,0
			l0.152-0.17l12.001-13.86c0.389-0.473,0.592-1.082,0.525-1.689h0.033c-0.033-0.575-0.305-1.149-0.812-1.589l-13.825-11.966
			c-0.507-0.407-1.115-0.609-1.689-0.574h-0.017c-0.574,0.033-1.167,0.303-1.572,0.777l-12.001,13.86
			c-0.405,0.472-0.574,1.082-0.54,1.689h-0.017C2934.715,1187.511,2934.985,1188.086,2935.459,1188.49L2935.459,1188.49z"/>
		<path fill-rule="evenodd" clip-rule="evenodd" fill="#E6E7E8" d="M2678.895,1227.399l19.403,16.8
			c4.553,3.92,5.045,10.884,1.114,15.414l-16.791,19.403c-3.938,4.564-10.867,5.036-15.414,1.115l-19.412-16.8
			c-4.547-3.92-5.045-10.85-1.116-15.414l16.792-19.403C2667.41,1223.984,2674.348,1223.477,2678.895,1227.399z"/>
		<path fill="#E6E7E8" d="M2682.486,1223.24l19.403,16.8c3.413,2.975,5.306,7.032,5.611,11.224
			c0.305,4.192-0.988,8.519-3.937,11.932l-16.802,19.403c-2.956,3.415-7.039,5.308-11.213,5.646
			c-4.192,0.27-8.519-1.014-11.925-3.955l-19.233-16.665l0,0h-0.017l-0.168-0.17c-3.415-2.941-5.308-7.03-5.613-11.189l0,0
			c-0.303-4.123,0.947-8.349,3.795-11.729l-0.017-0.035h0.017l0.152-0.168l16.8-19.403c2.949-3.415,7.056-5.308,11.23-5.611
			C2674.745,1219.015,2679.071,1220.299,2682.486,1223.24L2682.486,1223.24z M2694.722,1248.356l-19.42-16.8
			c-1.115-0.98-2.569-1.419-3.946-1.319h-0.033c-1.369,0.102-2.731,0.744-3.685,1.826l-0.009,0.035l-16.639,19.233l0,0h-0.009
			l-0.161,0.203c-0.964,1.116-1.386,2.535-1.284,3.922l-0.017,0.033c0.094,1.284,0.668,2.57,1.682,3.55l0,0l0,0l0.185,0.17
			l19.403,16.765c1.132,0.98,2.569,1.419,3.946,1.319c1.395-0.102,2.773-0.744,3.744-1.859l16.8-19.403
			c0.955-1.116,1.386-2.57,1.286-3.956C2696.463,1250.689,2695.83,1249.303,2694.722,1248.356z"/>
		<path fill-rule="evenodd" clip-rule="evenodd" fill="#E6E7E8" d="M2665.669,1100.882l14.552,12.591
			c3.406,2.958,3.778,8.148,0.829,11.561l-12.593,14.569c-2.949,3.415-8.155,3.787-11.568,0.829l-14.552-12.593
			c-3.406-2.941-3.778-8.146-0.829-11.56l12.584-14.553C2657.041,1098.313,2662.254,1097.924,2665.669,1100.882z"/>
		<path fill="#E6E7E8" d="M2669.243,1096.742l14.384,12.439l0,0l0.009,0.017l0.185,0.152c2.84,2.466,4.42,5.848,4.673,9.328
			c0.246,3.432-0.777,6.947-3.135,9.753l0.017,0.017l-0.017,0.017l-0.152,0.168l-12.6,14.552c-2.468,2.857-5.883,4.429-9.348,4.699
			l-0.016-0.016c-3.491,0.235-7.082-0.829-9.931-3.297l-14.552-12.591c-2.856-2.451-4.436-5.883-4.69-9.348l0.017-0.016
			c-0.254-3.5,0.82-7.082,3.278-9.922l12.449-14.382h-0.017h0.017l0.152-0.187c2.451-2.839,5.864-4.412,9.346-4.664l0,0
			c3.415-0.27,6.93,0.777,9.744,3.127l0.009-0.017l0,0L2669.243,1096.742L2669.243,1096.742z M2676.638,1117.632l-14.393-12.456
			v0.016h-0.007l-0.178-0.168c-0.54-0.457-1.26-0.694-1.944-0.642h-0.009c-0.668,0.033-1.319,0.338-1.791,0.862l-0.067,0.068
			l-12.6,14.569c-0.483,0.54-0.703,1.267-0.651,1.959l0.009-0.016c0.05,0.692,0.362,1.385,0.904,1.859h0.017l14.569,12.608
			c0.54,0.49,1.276,0.709,1.961,0.659v-0.017c0.701-0.05,1.385-0.355,1.842-0.895l0.017-0.017l12.439-14.384l0,0v-0.016l0.161-0.17
			c0.481-0.557,0.686-1.269,0.634-1.961c-0.033-0.66-0.337-1.319-0.836-1.809L2676.638,1117.632z"/>
		<path fill-rule="evenodd" clip-rule="evenodd" fill="#E6E7E8" d="M2686.974,1277.799l9.448,8.179
			c2.222,1.893,2.458,5.273,0.549,7.504l-8.181,9.431c-1.918,2.233-5.289,2.468-7.511,0.542l-9.441-8.181
			c-2.222-1.892-2.466-5.272-0.549-7.504l8.172-9.431C2681.378,1276.108,2684.759,1275.871,2686.974,1277.799z"/>
		<path fill="#E6E7E8" d="M2690.565,1273.64l9.448,8.181c2.248,1.961,3.506,4.631,3.7,7.369l0.009,0.033
			c0.187,2.738-0.651,5.578-2.594,7.809l-0.009,0.035l-8.188,9.431c-1.944,2.264-4.649,3.515-7.411,3.718
			c-2.729,0.203-5.578-0.675-7.818-2.603l-9.448-8.147l-0.017-0.033c-2.247-1.961-3.498-4.666-3.7-7.404
			c-0.187-2.771,0.666-5.576,2.586-7.807l0.017-0.035l8.179-9.431c1.961-2.266,4.657-3.515,7.411-3.718
			c2.738-0.17,5.57,0.642,7.809,2.601H2690.565L2690.565,1273.64z M2692.728,1290.002l-9.219-7.979l-7.97,9.228l9.211,7.979
			L2692.728,1290.002z"/>
		<path fill-rule="evenodd" clip-rule="evenodd" fill="#E6E7E8" d="M2590.372,1279.048l-28.816-24.947
			c-6.745-5.814-7.487-16.123-1.656-22.884l24.947-28.834c5.831-6.728,16.14-7.472,22.884-1.623l28.809,24.914
			c6.76,5.846,7.513,16.158,1.656,22.918l-24.929,28.799C2607.418,1284.154,2597.132,1284.896,2590.372,1279.048z"/>
		<path fill="#E6E7E8" d="M2627.235,1254.644l-28.825-24.947c-4.514-3.887-7.015-9.33-7.42-14.874
			c-0.398-5.511,1.309-11.222,5.204-15.753l24.94-28.799c3.903-4.496,9.32-7.032,14.848-7.437l0,0
			c5.552-0.405,11.257,1.319,15.777,5.206l28.825,24.947c4.505,3.92,7.023,9.296,7.42,14.839l-0.009,0.035
			c0.389,5.543-1.317,11.222-5.204,15.751l-24.947,28.801c-3.904,4.529-9.304,7.03-14.841,7.437h-0.015
			C2637.442,1260.255,2631.731,1258.531,2627.235,1254.644L2627.235,1254.644z M2605.583,1221.416l28.818,24.947
			c2.231,1.926,5.061,2.771,7.792,2.568h0.007c2.747-0.203,5.443-1.454,7.361-3.685l24.947-28.799
			c1.928-2.233,2.772-5.071,2.57-7.809h-0.009c-0.202-2.738-1.445-5.443-3.658-7.369l-28.818-24.947
			c-2.231-1.893-5.054-2.773-7.807-2.536l-0.009-0.033c-2.747,0.203-5.426,1.452-7.336,3.65l-0.024,0.033l-24.931,28.801
			c-1.926,2.231-2.771,5.104-2.577,7.842C2602.101,1216.784,2603.353,1219.488,2605.583,1221.416z"/>
		<path fill-rule="evenodd" clip-rule="evenodd" fill="#E6E7E8" d="M2801.582,1346.993l-8.839-7.639
			c-2.063-1.791-2.299-4.969-0.507-7.03l7.639-8.858c1.791-2.061,4.969-2.298,7.03-0.505l8.841,7.672
			c2.079,1.791,2.298,4.936,0.49,6.997l-7.639,8.856C2806.805,1348.549,2803.66,1348.784,2801.582,1346.993z"/>
		<path fill="#E6E7E8" d="M2798.016,1351.117l-8.856-7.64c-2.181-1.859-3.382-4.496-3.584-7.167
			c-0.168-2.67,0.642-5.408,2.536-7.572l7.639-8.856c1.859-2.163,4.462-3.38,7.132-3.55h-0.033c2.703-0.235,5.441,0.609,7.605,2.468
			l0.035,0.035l8.856,7.639c2.163,1.893,3.38,4.495,3.565,7.165c0.22,2.637-0.625,5.376-2.501,7.572h-0.017l-7.639,8.858
			c-1.859,2.163-4.495,3.38-7.165,3.583c-2.671,0.17-5.409-0.677-7.572-2.501V1351.117L2798.016,1351.117z M2796.715,1335.501
			l8.096,7.03l6.963-8.079l-8.079-6.997L2796.715,1335.501z"/>
		<path fill-rule="evenodd" clip-rule="evenodd" fill="#E6E7E8" d="M2698.002,1229.495l-9.761-8.418
			c-2.272-1.994-2.527-5.476-0.557-7.74l8.434-9.77c1.976-2.264,5.458-2.535,7.748-0.54l9.72,8.417
			c2.29,1.994,2.534,5.476,0.566,7.741l-8.425,9.735C2703.748,1231.218,2700.266,1231.454,2698.002,1229.495z"/>
		<path fill="#E6E7E8" d="M2694.402,1233.617l-9.735-8.417c-2.291-1.961-3.55-4.732-3.752-7.504
			c-0.196-2.771,0.658-5.678,2.636-7.944l8.417-9.735c1.987-2.298,4.716-3.583,7.496-3.752l0.009-0.033
			c2.797-0.203,5.663,0.675,7.944,2.636h0.017l9.752,8.451c2.264,1.961,3.541,4.699,3.735,7.504
			c0.203,2.773-0.659,5.678-2.612,7.944h-0.017l-8.425,9.735c-1.977,2.298-4.723,3.549-7.487,3.752h-0.017
			C2699.573,1236.457,2696.692,1235.578,2694.402,1233.617L2694.402,1233.617z M2691.841,1216.919l9.744,8.417l8.425-9.735
			l-9.744-8.451L2691.841,1216.919L2691.841,1216.919z M2701.567,1225.37v-0.035l-0.009,0.035H2701.567z"/>
		<path fill-rule="evenodd" clip-rule="evenodd" fill="#E6E7E8" d="M2608.432,1167.026l4.758,4.124
			c1.115,0.98,1.234,2.671,0.27,3.785l-4.116,4.766c-0.971,1.082-2.662,1.217-3.778,0.237l-4.749-4.09
			c-1.115-0.981-1.241-2.671-0.279-3.787l4.115-4.766C2605.618,1166.182,2607.324,1166.079,2608.432,1167.026z"/>
		<path fill="#E6E7E8" d="M2612.041,1162.902l4.555,3.955l0.007-0.033v0.033l0.161,0.135c1.691,1.454,2.629,3.482,2.797,5.578
			l0.035,0.068c0.117,1.961-0.474,4.022-1.826,5.678h0.009h-0.009l-0.109,0.135l-0.068,0.068l-3.948,4.564h0.017l-0.017,0.035
			l-0.144,0.135c-1.469,1.689-3.489,2.636-5.568,2.805l-0.052,0.033c-1.968,0.137-4.04-0.473-5.704-1.824h-0.007h-0.009
			l-0.102-0.102l-0.109-0.1l-4.538-3.922l0,0h-0.017l-0.152-0.135c-1.732-1.488-2.67-3.55-2.814-5.611l0,0
			c-0.126-2.028,0.457-4.091,1.8-5.748h-0.009h0.009l0.093-0.1l0.083-0.102l3.939-4.53v-0.035l0,0l0.152-0.168
			c1.469-1.691,3.515-2.638,5.576-2.773l0.043-0.033c1.985-0.135,4.048,0.44,5.72,1.824l0,0l0,0l0.111,0.102L2612.041,1162.902
			L2612.041,1162.902z M2607.486,1173.449l-0.516-0.44l-0.448,0.507l0.516,0.472L2607.486,1173.449z"/>
		<path fill-rule="evenodd" clip-rule="evenodd" fill="#E6E7E8" d="M2588.057,1181.798l11.391,9.87
			c2.653,2.298,2.958,6.39,0.642,9.026l-9.853,11.392c-2.307,2.67-6.381,2.975-9.043,0.677l-11.407-9.87
			c-2.662-2.3-2.958-6.39-0.642-9.06l9.853-11.391C2581.314,1179.769,2585.395,1179.5,2588.057,1181.798z"/>
		<path fill="#E6E7E8" d="M2591.648,1177.674l11.385,9.837c2.483,2.163,3.87,5.138,4.081,8.146c0.211,3.043-0.735,6.153-2.855,8.619
			l-0.026,0.035l-9.837,11.357c-2.163,2.503-5.112,3.854-8.146,4.091c-3.025,0.203-6.151-0.711-8.619-2.84l-0.026-0.035l-11.4-9.836
			c-2.466-2.163-3.844-5.139-4.073-8.146v-0.035c-0.211-3.008,0.727-6.151,2.847-8.619h0.026l9.853-11.391
			c2.148-2.468,5.13-3.854,8.164-4.057c3.008-0.237,6.135,0.71,8.603,2.84L2591.648,1177.674L2591.648,1177.674z M2595.857,1195.792
			l-11.383-9.837c-0.185-0.168-0.448-0.235-0.677-0.235h-0.033c-0.237,0.033-0.466,0.135-0.609,0.303h-0.009l-9.844,11.392
			c-0.17,0.204-0.237,0.44-0.229,0.711c0.026,0.235,0.126,0.472,0.313,0.607l11.392,9.87c0.185,0.17,0.44,0.237,0.666,0.237
			c0.246-0.035,0.507-0.135,0.651-0.338l9.846-11.392c0.152-0.169,0.246-0.439,0.229-0.677l0,0
			C2596.144,1196.197,2596.035,1195.962,2595.857,1195.792z"/>
		<path fill-rule="evenodd" clip-rule="evenodd" fill="#E6E7E8" d="M2766.375,1356.763l8.316,7.2
			c1.961,1.689,2.163,4.664,0.474,6.625l-7.201,8.281c-1.672,1.961-4.638,2.198-6.582,0.507l-8.316-7.2
			c-1.943-1.691-2.163-4.664-0.481-6.592l7.2-8.314C2761.458,1355.309,2764.432,1355.106,2766.375,1356.763z"/>
		<path fill="#E6E7E8" d="M2769.96,1352.638l8.332,7.2c2.096,1.826,3.262,4.361,3.465,6.93l0,0c0.203,2.603-0.625,5.273-2.451,7.402
			l-7.182,8.316c-1.826,2.096-4.394,3.28-6.938,3.482c-2.603,0.168-5.273-0.642-7.394-2.433l-8.325-7.202
			c-2.113-1.824-3.28-4.394-3.473-6.963h0.009c-0.178-2.603,0.625-5.274,2.433-7.369l7.193-8.316
			c1.842-2.129,4.386-3.313,6.954-3.48h0.017C2765.193,1350.035,2767.864,1350.812,2769.96,1352.638L2769.96,1352.638z
			 M2770.5,1367.58l-7.106-6.153l-6.135,7.132l7.098,6.153L2770.5,1367.58z"/>
		<path fill-rule="evenodd" clip-rule="evenodd" fill="#E6E7E8" d="M3265.477,1447.523l-25.976-22.479
			c-6.085-5.274-15.364-4.597-20.637,1.487l-22.479,25.995c-5.291,6.083-4.631,15.381,1.469,20.653l25.995,22.48
			c6.101,5.274,15.364,4.597,20.635-1.489l22.513-25.993C3272.255,1462.092,3271.597,1452.797,3265.477,1447.523z"/>
		<path fill="#E6E7E8" d="M3261.912,1451.682l-25.826-22.345l0,0l0,0l-0.152-0.135l0,0l-0.017-0.033
			c-1.909-1.623-4.309-2.333-6.642-2.163v-0.035c-2.264,0.17-4.462,1.184-6.101,2.975l0,0h-0.017l-0.135,0.17l-22.513,25.994
			c-1.639,1.893-2.366,4.327-2.196,6.66c0.168,2.331,1.234,4.597,3.126,6.253l25.995,22.513c1.909,1.622,4.31,2.333,6.643,2.163l0,0
			c2.333-0.17,4.631-1.217,6.27-3.11l22.496-25.995c1.622-1.891,2.366-4.327,2.196-6.658
			C3264.87,1455.602,3263.821,1453.338,3261.912,1451.682L3261.912,1451.682z M3243.083,1420.887l26.011,22.511
			c4.159,3.617,6.49,8.621,6.862,13.759c0.372,5.137-1.217,10.41-4.834,14.602l-22.479,25.995c-3.635,4.19-8.636,6.523-13.758,6.895
			l-0.017-0.035c-5.156,0.372-10.429-1.217-14.604-4.799l-26.011-22.513c-4.157-3.617-6.49-8.619-6.862-13.758
			c-0.372-5.138,1.217-10.445,4.834-14.604l22.344-25.824l0,0v-0.035l0.135-0.17c3.617-4.157,8.638-6.49,13.775-6.86h-0.016
			c5.069-0.372,10.275,1.182,14.434,4.697v-0.033h0.016L3243.083,1420.887z"/>
		<path fill="#E6E7E8" d="M3380.679,1303.285l-19.505-16.867c-1.115-0.98-2.568-1.419-3.955-1.317h-0.018
			c-1.402,0.101-2.788,0.743-3.768,1.859l-16.868,19.503c-0.981,1.149-1.421,2.603-1.319,3.989c0.101,1.419,0.744,2.805,1.894,3.752
			l19.486,16.868c1.133,0.979,2.587,1.419,3.989,1.352c1.404-0.1,2.788-0.742,3.752-1.892l16.885-19.505
			c0.98-1.116,1.419-2.603,1.319-3.989h-0.017C3382.437,1305.653,3381.828,1304.267,3380.679,1303.285L3380.679,1303.285z
			 M3368.358,1278.136l19.521,16.868c3.415,2.941,5.306,7.065,5.611,11.256h-0.033c0.302,4.225-0.982,8.552-3.922,11.966
			l-16.867,19.471c-2.958,3.415-7.065,5.308-11.29,5.611c-4.192,0.305-8.519-0.98-11.933-3.92l-19.505-16.868
			c-3.413-2.975-5.306-7.065-5.611-11.291c-0.303-4.192,0.997-8.519,3.955-11.932l16.87-19.505
			c2.958-3.415,7.064-5.306,11.254-5.646v0.035C3360.634,1273.877,3364.96,1275.161,3368.358,1278.136z"/>
		<path fill-rule="evenodd" clip-rule="evenodd" fill="#E6E7E8" d="M3024.106,1163.679l19.42,16.8
			c4.529,3.922,11.459,3.415,15.414-1.114l16.784-19.403c3.938-4.564,3.43-11.502-1.099-15.422l-19.42-16.784
			c-4.547-3.955-11.492-3.448-15.414,1.099l-16.783,19.403C3019.055,1152.803,3019.562,1159.759,3024.106,1163.679z"/>
		<path fill="#E6E7E8" d="M3027.691,1159.522l19.233,16.665l0.017-0.035v0.035l0.152,0.135c1.132,0.98,2.586,1.419,3.972,1.319l0,0
			c1.317-0.102,2.603-0.677,3.548-1.691l0,0l0,0l0.17-0.17l16.8-19.401c0.964-1.142,1.404-2.579,1.302-3.965l0.017-0.016
			c-0.102-1.369-0.744-2.738-1.859-3.719l-19.403-16.765l-0.017-0.017c-1.116-0.964-2.553-1.419-3.938-1.302l-0.035-0.017
			c-1.386,0.102-2.738,0.727-3.718,1.861l-16.767,19.386l-0.033,0.033c-0.947,1.116-1.386,2.553-1.286,3.946h-0.016
			C3025.932,1157.189,3026.559,1158.575,3027.691,1159.522L3027.691,1159.522z M3039.944,1184.638l-19.403-16.8h-0.017
			c-3.413-2.942-5.306-7.065-5.628-11.257v0.033c-0.287-4.2,1.014-8.527,3.955-11.94l16.784-19.403h0.016
			c2.942-3.415,7.032-5.308,11.224-5.611v-0.017c4.175-0.305,8.501,0.997,11.932,3.955l19.37,16.783h0.033
			c3.415,2.958,5.291,7.032,5.611,11.241v-0.017c0.305,4.199-0.979,8.526-3.955,11.94l-16.631,19.233l0,0l0,0l-0.169,0.17
			c-2.958,3.415-7.03,5.306-11.189,5.611h-0.033c-4.107,0.305-8.349-0.947-11.714-3.785h-0.015l0,0L3039.944,1184.638z"/>
		<path fill-rule="evenodd" clip-rule="evenodd" fill="#E6E7E8" d="M2511.815,1007.366l14.543,12.608
			c3.413,2.94,8.61,2.568,11.561-0.827l12.6-14.569c2.949-3.415,2.586-8.621-0.844-11.561l-14.554-12.593
			c-3.404-2.956-8.602-2.568-11.551,0.829l-12.601,14.552C2508.02,999.22,2508.392,1004.426,2511.815,1007.366z"/>
		<path fill="#E6E7E8" d="M2515.398,1003.225l14.552,12.608c0.557,0.474,1.267,0.694,1.952,0.644h0.017
			c0.684-0.035,1.369-0.356,1.85-0.931l12.608-14.552c0.466-0.557,0.677-1.284,0.642-1.977l-0.009-0.017
			c-0.042-0.677-0.355-1.352-0.895-1.826l-0.017-0.017l-14.561-12.591c-0.557-0.472-1.284-0.692-1.961-0.642
			c-0.701,0.05-1.386,0.372-1.867,0.929l-12.6,14.552c-0.474,0.575-0.701,1.302-0.642,1.961l0.009-0.017
			C2514.519,1002.058,2514.832,1002.752,2515.398,1003.225L2515.398,1003.225z M2522.767,1024.116l-14.553-12.593
			c-2.847-2.484-4.427-5.881-4.682-9.346l0.009-0.017c-0.244-3.498,0.837-7.082,3.262-9.921l0.017-0.017l12.6-14.552
			c2.468-2.857,5.874-4.429,9.346-4.682c3.491-0.254,7.091,0.845,9.922,3.278l0.026,0.017l14.552,12.591
			c2.865,2.468,4.453,5.883,4.69,9.38c0.235,3.465-0.853,7.065-3.297,9.922l-12.591,14.552c-2.468,2.823-5.865,4.412-9.354,4.664
			l-0.009,0.017c-3.482,0.27-7.082-0.829-9.914-3.28L2522.767,1024.116z"/>
		<path fill-rule="evenodd" clip-rule="evenodd" fill="#E6E7E8" d="M3176.745,1517.766l9.448,8.181
			c2.214,1.892,5.594,1.656,7.522-0.542l8.162-9.465c1.911-2.196,1.674-5.576-0.557-7.504l-9.431-8.179
			c-2.231-1.926-5.578-1.656-7.504,0.54l-8.181,9.465C3174.277,1512.46,3174.531,1515.839,3176.745,1517.766z"/>
		<path fill="#E6E7E8" d="M3180.447,1513.709l9.211,7.979l7.927-9.161h-0.017l0,0l0.05-0.067l-9.177-7.944L3180.447,1513.709
			L3180.447,1513.709z M3182.626,1530.104l-9.463-8.181c-2.266-1.959-3.517-4.664-3.719-7.402c-0.203-2.738,0.642-5.611,2.603-7.842
			h0.017l8.164-9.465c1.959-2.264,4.664-3.515,7.402-3.718c2.755-0.17,5.578,0.675,7.809,2.603h0.033l9.263,8.044l0,0h0.033
			l0.187,0.169c2.214,1.927,3.465,4.63,3.667,7.368v0.035c0.202,2.67-0.609,5.408-2.451,7.606l0.017,0.033l0,0l-0.169,0.17
			l-8.146,9.431c-1.961,2.298-4.699,3.55-7.437,3.718C3187.697,1532.877,3184.857,1532.03,3182.626,1530.104z"/>
		<path fill-rule="evenodd" clip-rule="evenodd" fill="#E6E7E8" d="M2627.285,940.758l-28.825-24.931
			c-6.751-5.864-17.046-5.121-22.885,1.641l-24.938,28.816c-5.848,6.76-5.095,17.053,1.656,22.885l28.818,24.946
			c6.751,5.831,17.044,5.087,22.883-1.656l24.938-28.818C2634.765,956.881,2634.03,946.589,2627.285,940.758z"/>
		<path fill="#E6E7E8" d="M2623.694,944.898l-28.825-24.929c-2.231-1.944-5.071-2.788-7.809-2.586
			c-2.729,0.185-5.408,1.437-7.335,3.667l-24.947,28.816c-1.928,2.231-2.781,5.054-2.579,7.809l-0.007,0.017
			c0.203,2.721,1.452,5.408,3.683,7.335l28.809,24.946c2.231,1.926,5.062,2.773,7.801,2.568l0.017,0.017
			c2.738-0.202,5.416-1.454,7.344-3.685l24.938-28.816c1.926-2.231,2.78-5.054,2.568-7.792l0.017-0.035
			C2627.167,949.512,2625.933,946.824,2623.694,944.898L2623.694,944.898z M2602.051,911.67l28.81,24.929
			c4.521,3.904,7.03,9.313,7.428,14.857h0.009c0.414,5.543-1.301,11.239-5.215,15.77l-24.947,28.816
			c-3.896,4.512-9.304,7.015-14.848,7.419l0.009,0.017c-5.545,0.405-11.257-1.301-15.779-5.223l-28.816-24.946
			c-4.512-3.887-7.023-9.296-7.428-14.839l0,0c-0.414-5.543,1.319-11.257,5.215-15.768l24.938-28.818
			c3.905-4.529,9.322-7.03,14.865-7.42C2591.843,906.059,2597.539,907.765,2602.051,911.67z"/>
		<path fill-rule="evenodd" clip-rule="evenodd" fill="#E6E7E8" d="M3217.123,1301.866l-8.839-7.674
			c-2.063-1.791-5.24-1.554-7.032,0.542l-7.639,8.823c-1.792,2.061-1.554,5.239,0.507,7.03l8.839,7.639
			c2.08,1.792,5.223,1.556,7.015-0.507l7.657-8.822C3219.421,1306.802,3219.201,1303.657,3217.123,1301.866z"/>
		<path fill="#E6E7E8" d="M3213.151,1305.686l-8.062-6.997l-7.015,8.079l8.079,6.963L3213.151,1305.686L3213.151,1305.686z
			 M3211.866,1290.07l8.856,7.639c2.163,1.859,3.38,4.495,3.55,7.132l0.017,0.033c0.22,2.638-0.626,5.408-2.502,7.572h-0.017
			l-7.639,8.856c-1.859,2.163-4.462,3.382-7.132,3.55v0.035c-2.67,0.203-5.441-0.642-7.605-2.503l-0.017-0.033l-8.839-7.639
			c-2.198-1.893-3.397-4.496-3.584-7.132v-0.035c-0.168-2.671,0.642-5.374,2.503-7.537l0.016-0.035l7.656-8.856
			c1.859-2.163,4.462-3.38,7.132-3.55v-0.033C3206.93,1287.365,3209.686,1288.176,3211.866,1290.07L3211.866,1290.07z"/>
		<path fill-rule="evenodd" clip-rule="evenodd" fill="#E6E7E8" d="M2876.946,1378.262l6.93,6.016
			c1.623,1.386,4.09,1.217,5.511-0.405l5.999-6.93c1.404-1.656,1.219-4.124-0.405-5.511l-6.913-6.016
			c-1.639-1.386-4.124-1.217-5.51,0.405l-6.016,6.93C2875.137,1374.374,2875.324,1376.841,2876.946,1378.262z"/>
		<path fill="#E6E7E8" d="M2881.712,1375.151l4.564,3.955l3.938-4.564l-4.547-3.955L2881.712,1375.151L2881.712,1375.151z
			 M2880.31,1388.437l-6.947-6.018c-1.961-1.691-3.042-4.057-3.212-6.422c-0.168-2.401,0.559-4.867,2.248-6.828l5.983-6.93h0.017
			c1.691-1.961,4.022-3.042,6.423-3.212h0.017c2.384-0.168,4.85,0.575,6.778,2.231l0.033,0.035l6.93,5.983
			c1.926,1.691,3.043,4.057,3.195,6.423h0.017c0.168,2.366-0.574,4.834-2.231,6.795l-0.034,0.033l-6,6.93
			c-1.707,1.961-4.04,3.043-6.406,3.212h-0.017C2884.687,1390.835,2882.254,1390.093,2880.31,1388.437z"/>
		<path fill-rule="evenodd" clip-rule="evenodd" fill="#E6E7E8" d="M2965.645,1144.877l11.374,9.853
			c2.688,2.324,6.745,2.02,9.043-0.658l9.87-11.376c2.298-2.686,2.028-6.743-0.66-9.058l-11.374-9.853
			c-2.688-2.316-6.76-2.029-9.059,0.642l-9.87,11.407C2962.67,1138.489,2962.957,1142.561,2965.645,1144.877z"/>
		<g>
			<path fill="#E6E7E8" d="M2969.229,1140.719l11.374,9.853c0.185,0.17,0.455,0.255,0.692,0.237
				c0.237-0.035,0.474-0.135,0.609-0.305v-0.017l9.87-11.374c0.169-0.202,0.237-0.44,0.22-0.677v-0.033
				c-0.017-0.22-0.119-0.474-0.287-0.609l-0.017-0.017l-11.206-9.701h-0.016h-0.017l-0.135-0.135h-0.017
				c-0.185-0.17-0.457-0.254-0.677-0.237l-0.016,0.017c-0.237,0-0.474,0.102-0.609,0.287l0,0L2969.229,1140.719L2969.229,1140.719z
				 M2973.454,1158.88l-11.222-9.711l0,0l-0.035-0.016l-0.17-0.135c-2.466-2.148-3.853-5.121-4.055-8.131
				c-0.204-2.973,0.642-6.016,2.703-8.449v-0.017l0,0l0.17-0.17l9.683-11.222h0.017l-0.017-0.017l0.17-0.169
				c2.146-2.466,5.104-3.87,8.129-4.072c2.975-0.203,6.018,0.675,8.451,2.688l0,0h0.017l0.153,0.168l11.424,9.87
				c2.468,2.148,3.872,5.139,4.057,8.164c0.237,3.008-0.709,6.135-2.838,8.603v0.017l-9.872,11.383
				c-2.146,2.466-5.137,3.853-8.129,4.089h-0.017C2979.032,1161.955,2975.922,1161.008,2973.454,1158.88L2973.454,1158.88
				L2973.454,1158.88z M2980.316,1127.942h-0.017H2980.316L2980.316,1127.942L2980.316,1127.942z M2978.98,1128.009l-9.786,12.71
				v-0.017c-0.169-0.135-0.27-0.389-0.287-0.625c-0.017-0.22,0.05-0.474,0.22-0.677v-0.017l0.135-0.135h0.035l-0.035-0.017
				L2978.98,1128.009L2978.98,1128.009z M2969.127,1139.383v0.017l0,0V1139.383z"/>
		</g>
		<path fill-rule="evenodd" clip-rule="evenodd" fill="#E6E7E8" d="M3159.708,1437.18l8.316,7.2
			c1.926,1.689,4.901,1.486,6.591-0.474l7.201-8.314c1.689-1.961,1.452-4.936-0.474-6.592l-8.316-7.2
			c-1.959-1.691-4.917-1.487-6.608,0.472l-7.182,8.316C3157.545,1432.514,3157.747,1435.489,3159.708,1437.18z"/>
		<path fill="#E6E7E8" d="M3163.9,1433.563l7.099,6.151l6.151-7.098l-7.098-6.153L3163.9,1433.563L3163.9,1433.563z
			 M3164.44,1448.537l-8.314-7.2c-2.13-1.826-3.28-4.361-3.482-6.93l0,0c-0.202-2.603,0.609-5.306,2.434-7.402l7.2-8.316
			c1.826-2.129,4.361-3.28,6.93-3.482l0,0c2.603-0.203,5.291,0.609,7.404,2.435l8.314,7.2c2.113,1.824,3.28,4.36,3.482,6.963l0,0
			c0.169,2.603-0.625,5.274-2.451,7.37l-7.182,8.316c-1.859,2.129-4.394,3.313-6.965,3.48l0,0
			C3169.206,1451.14,3166.52,1450.329,3164.44,1448.537z"/>
		<polygon fill-rule="evenodd" clip-rule="evenodd" fill="#E6E7E8" points="3692.984,2248.96 2244.347,1100.865 2245.337,1099.615 
			3695.553,2248.96 		"/>
		<polygon fill-rule="evenodd" clip-rule="evenodd" fill="#E6E7E8" points="3521.4,2007.909 2364.036,1090.674 2365.025,1089.423 
			3522.398,2006.66 		"/>
		<polygon fill-rule="evenodd" clip-rule="evenodd" fill="#E6E7E8" points="4239.478,1756.314 3404.729,1094.746 3405.728,1093.497 
			4240.492,1755.062 		"/>
		<path fill-rule="evenodd" clip-rule="evenodd" fill="#E6E7E8" d="M3021.386,1454.858l15.938,13.792
			c3.735,3.245,4.142,8.923,0.929,12.643l-13.79,15.921c-3.245,3.752-8.925,4.157-12.677,0.912l-15.921-13.757
			c-3.735-3.245-4.14-8.924-0.912-12.676l13.792-15.921C3011.955,1452.02,3017.668,1451.647,3021.386,1454.858z"/>
		<path fill="#E6E7E8" d="M3002.338,1462.532l15.938,13.757c2.435,2.13,3.787,5.036,4.007,8.011l0.017,0.035
			c0.202,2.973-0.711,6.051-2.823,8.484l-13.775,15.955c-2.131,2.433-5.036,3.785-8.046,4.022c-2.973,0.203-6.068-0.71-8.501-2.84
			l-15.836-13.69h-0.017h-0.017l-0.068-0.1c-2.433-2.096-3.785-5.038-4.022-8.011h0.017c-0.22-2.975,0.675-6.018,2.721-8.418l0,0
			l0,0l0.102-0.1l13.69-15.82l0,0v-0.033l0.101-0.068c2.096-2.468,5.003-3.787,8.011-4.024l0,0c2.958-0.203,5.983,0.711,8.418,2.738
			l0,0l0,0L3002.338,1462.532L3002.338,1462.532z M3014.693,1480.481l-15.853-13.725l0,0l0,0l-0.102-0.1
			c-1.284-1.082-2.94-1.589-4.495-1.488l0,0c-1.556,0.137-3.077,0.812-4.192,2.063l0,0l0,0l-0.085,0.068l-13.707,15.853l0,0l0,0
			l-0.085,0.102c-1.115,1.284-1.606,2.906-1.487,4.495l0,0c0.118,1.556,0.794,3.077,2.028,4.192h0.016l0,0l0.085,0.067
			l15.938,13.792c1.284,1.116,2.925,1.589,4.496,1.487c1.606-0.101,3.143-0.845,4.259-2.129l13.808-15.921
			c1.099-1.284,1.606-2.908,1.471-4.496v-0.033C3016.687,1483.119,3015.977,1481.563,3014.693,1480.481z"/>
		<polygon fill-rule="evenodd" clip-rule="evenodd" fill="#E6E7E8" points="4316.261,1683.435 3824.714,1293.855 3825.289,1293.145 
			4316.261,1682.251 		"/>
		<polygon fill-rule="evenodd" clip-rule="evenodd" fill="#E6E7E8" points="3394.841,1260.559 2730.468,734.002 2731.043,733.292 
			3395.417,1259.815 		"/>
	</g>
	<path fill-rule="evenodd" clip-rule="evenodd" fill="#EC008C" d="M3634.201,359.143l21.466,0.76
		c5.036,0.187,8.991,4.446,8.821,9.465l-0.777,21.464c-0.169,5.038-4.429,9.01-9.465,8.823l-21.464-0.76
		c-5.036-0.187-8.991-4.446-8.823-9.483l0.779-21.464C3624.905,362.928,3629.164,358.956,3634.201,359.143z"/>
	<path fill-rule="evenodd" clip-rule="evenodd" fill="#EC008C" d="M3537.727,1690.939l23.712,9.498
		c5.561,2.198,8.266,8.552,6.051,14.13l-9.481,23.695c-2.231,5.545-8.586,8.283-14.129,6.052l-23.713-9.5
		c-5.561-2.196-8.283-8.586-6.052-14.13l9.483-23.695C3525.828,1691.447,3532.184,1688.708,3537.727,1690.939z"/>
	<path fill-rule="evenodd" clip-rule="evenodd" fill="#F9C2CD" d="M4062.857,1081.294l52.378,1.876
		c12.253,0.44,22.664-9.245,23.104-21.499l1.86-52.378c0.438-12.271-9.228-22.665-21.499-23.104l-52.361-1.86
		c-12.271-0.44-22.665,9.228-23.105,21.499l-1.876,52.378C4040.918,1070.459,4050.604,1080.854,4062.857,1081.294z"/>
	<path fill-rule="evenodd" clip-rule="evenodd" fill="#F9C2CD" d="M3253.495,882.751l25.166-10.277
		c5.899-2.399,12.676,0.457,15.109,6.355l10.26,25.166c2.416,5.9-0.457,12.677-6.338,15.093l-25.184,10.277
		c-5.883,2.399-12.676-0.457-15.076-6.355l-10.277-25.166C3244.757,891.945,3247.595,885.167,3253.495,882.751z"/>
	<path fill-rule="evenodd" clip-rule="evenodd" fill="#F9C2CD" d="M2955.03,1682.386l26.637,0.947
		c6.22,0.203,11.155,5.511,10.919,11.731l-0.947,26.636c-0.203,6.253-5.511,11.154-11.731,10.952l-26.635-0.947
		c-6.255-0.235-11.172-5.509-10.952-11.762l0.947-26.637C2943.504,1687.085,2948.777,1682.151,2955.03,1682.386z"/>
	<path fill-rule="evenodd" clip-rule="evenodd" fill="#EC008C" d="M3892.591,1468.717l17.24,0.642
		c4.022,0.135,7.437-3.041,7.589-7.098l0.625-17.207c0.135-4.022-3.042-7.435-7.082-7.605l-17.222-0.609
		c-4.022-0.135-7.437,3.043-7.589,7.065l-0.625,17.24C3885.391,1465.168,3888.569,1468.582,3892.591,1468.717z"/>
	<g>
		<path fill="#F281B3" d="M1179.773,2007.842c61.876-127.978,137.774-250.851,229.015-365.883
			c143.443-180.846,312.569-343.235,490.946-447.518c157.784-92.24,324.603-137.367,493.068-108.043
			c181.388,31.555,347.673,242.072,515.175,486.4c162.052,236.419,318.391,549.874,504.747,614.471
			c187.116,64.834,351.754-137.443,482.097-300.949c58.209-73.014,111.11-137.408,159.584-180.846
			c45.804-41.07,88.395-64.462,129.906-58.986c50.468,6.66,95.966,66.018,131.95,138.727v-11.729
			c-24.118-46.411-51.127-83.595-80.942-106.479c-58.225-44.756-118.377-7.269-188.451,64.258
			c-76.953,78.594-170.673,203.056-288.103,314.741c-121.455,115.539-264.306,75.042-422.504-54.524
			c-170.74-139.776-353.31-375.349-543.181-619.44c-336.297-432.417-707.86-397.059-1012.492-155.292
			c-145.084,115.167-273.745,257.444-382.727,412.938c-84.947,121.15-157.344,249.23-218.089,377.107V2007.842L1179.773,2007.842z
			 M3654.653,2248.96c73.571-16.665,141.06-26.198,201.736-7.269c7.099,2.231,14.044,4.666,20.89,7.269h32.857
			c-59.46-18.321-131.088-13.285-213.703,0H3654.653L3654.653,2248.96z M3697.007,2248.96c27.027-1.928,53.207-1.995,78.457,0
			H3697.007z"/>
		<path fill="#F9C2CD" d="M1996.471,2248.96c15.516-24.441,31.894-48.373,49.149-71.731
			c147.635-199.842,353.884-354.897,578.015-330.694c230.697,24.914,467.774,252.914,722.227,356.42
			c129.127,52.563,254.638-4.666,364.767-59.258c100.228-49.623,188.52-117.128,269.782-125.138
			c125.544-12.338,209.579,80.553,255.213,211.573c2.181,6.219,4.293,12.506,6.322,18.828h5.441
			c-8.044-27.719-17.19-54.254-27.482-79.268c-40.427-98.267-103.927-171.822-185.477-172.734
			c-101.273-1.115-222.627,105.601-374.469,172.159c-173.139,75.854-381.45,14.027-601.896-125.951
			c-258.391-164.079-484.913-260.924-678.156-184.531c-163.843,64.767-299.893,215.495-402.189,390.324H1996.471L1996.471,2248.96z
			 M3784.184,2248.96c-17.307-5.916-35.594-10.954-54.962-14.841c-57.635-11.594-118.447-1.994-181.387,14.841h-62.941
			c79.843-18.863,155.595-31.911,224.926-26.198c42.354,3.515,81.093,12.778,116.096,26.198h31.554
			c-75.177-34.851-168.913-22.446-273.77,0h13.892c83.273-15.55,158.637-20.485,221.73,0h-9.853
			c-21.786-8.586-45.127-16.09-70.073-22.243c0,0-5.376-0.304-3.382,0.27c21.803,6.49,42.525,13.86,62.164,21.973H3784.184
			L3784.184,2248.96z M3865.651,2248.96c-71.055-32.688-159.349-25.928-258.83-7.269c-12.406,2.298-25.049,4.734-37.894,7.269h6.795
			c105.432-25.556,200.148-42.423,280.362-7.437c5.341,2.298,10.547,4.799,15.668,7.437H3865.651z"/>
		<path fill="#F9C2CD" d="M2549.438,2248.96c110.788-49.758,235.092-70.919,367.7-58.649
			c105.769,9.768,214.413,41.78,324.002,58.649h227.089c93.246-16.902,184.496-49.555,271.811-63.348
			c123.549-19.573,221.003,5.036,290.334,63.348h20.213c-74.84-73.285-193.217-87.922-356.013-53.477
			c-228.17,48.237-498.832,35.596-762.426,0.17c-142.311-19.133-279.78-1.352-402.73,53.308H2549.438z"/>
		<path fill="#EC008C" d="M4075.702,2248.96c-92.553-126.863-237.771-106.446-419.968-57.567
			c-108.864,29.206-232.193,17.78-365.818-11.324c-145.385-31.674-301.556-85.759-462.796-131.764
			c-274.945-78.389-527.724,10.615-704.217,200.656h55.487c157.69-162.356,361.236-250.211,588.223-210.526
			c147.956,25.893,297.974,122.671,457.964,171.448c143.949,43.912,291.314,25.623,431.647-14.028
			c182.182-51.516,302.688-60.777,375.331,17.847c9.938,10.75,19.183,22.581,27.719,35.258H4075.702L4075.702,2248.96z
			 M1869.743,2248.96h15.551c48.996-86.503,109.064-169.117,180.43-244.463c231.272-244.126,532.83-285.5,852.022-79.303
			c179.664,116.081,357.247,283.946,536.691,291.111c160.428,6.423,304.801-119.257,434.842-157.319
			c153.331-44.891,254.521,44.18,304.379,189.974h4.006c-4.057-11.494-8.384-22.818-12.98-33.939
			c-62.858-151.64-187.573-193.691-367.574-119.729c-120.948,49.689-257.511,142.952-406.093,121.893
			c-166.564-23.595-332.216-175.505-503.106-282.762c-306.096-192.102-611.302-180.441-849.107,63.28
			C1981.902,2076.531,1919.333,2161.375,1869.743,2248.96z"/>
		<path fill="#EC008C" d="M4005.967,2248.96c-45.634-39.348-103.81-65.071-173.629-65.546
			c-109.606-0.777-242.25,43.337-389.63,65.546h68.957c161.816-30.018,291.923-85.184,388.126-61.184
			c39.296,9.803,74.672,31.471,105.297,61.184H4005.967L4005.967,2248.96z M3137.737,2248.96
			c-208.802-27.28-411.882-76.023-597.967,0h17.712c25.353-9.939,51.356-18.051,77.934-24.237
			c147.947-34.311,309.981,0.608,478.388,24.237H3137.737L3137.737,2248.96z M2231.258,2248.96
			c143.772-136.126,323.858-208.7,515.573-191.19c144.447,13.183,290.241,96.236,442.421,145.352
			c139.032,44.857,279.619,51.144,412.059,9.026c230.131-73.15,388.161-125.51,482.606-35.594
			c20.722,19.74,39.246,44.382,55.386,72.406h-19.995c-48.676-76.565-114.558-128.249-193.489-130.176
			c-73.216-1.791-162.625,36.406-269.258,68.417c-118.699,35.628-260.941,64.395-425.799,26.333
			c-382.413-88.294-678.824-227.359-905.667-72.778c-45.203,30.829-86.418,67.403-123.668,108.204H2231.258L2231.258,2248.96z
			 M3762.18,2248.96h-124.532c44.621-6.694,84.644-8.046,119.934-0.981L3762.18,2248.96z"/>
		<path fill-rule="evenodd" clip-rule="evenodd" fill="#F9C2CD" d="M4058.598,2248.96c-38.417-43.065-88.057-75.449-150.051-87.043
			c-98.164-18.356-207.416,34.547-327.417,65.172c-42.76,10.917-86.603,18.187-131.257,21.871h40.699
			c213.939-29.24,384.814-116.081,503.141-51.854c23.425,12.709,44.535,30.523,63.363,51.854H4058.598L4058.598,2248.96z
			 M3309.304,2248.96c-50.215-4.024-101.02-12.17-152.097-24.474c-251.495-60.575-487.464-81.904-685.323,24.474h-28.436
			c66.093-37.996,139.985-65.781,221.476-79.066c199.38-32.518,405.967,51.989,608.564,79.066H3309.304z"/>
		<path fill-rule="evenodd" clip-rule="evenodd" fill="#F9C2CD" d="M3897.527,2248.96c-62.114-27.347-138.085-41.376-228.627-34.176
			c-156.524,12.406-319.151,24.169-478.228,34.176h304.599c125.087-24.711,231.009-54.491,315.686-51.111
			c55.269,2.198,104.587,21.059,146.621,51.111H3897.527z"/>
		<path fill="#EC008C" d="M3867.002,2248.96c-33.127-17.172-70.919-29.883-113.156-35.764
			c-79.826-11.121-171.837,12.202-272.4,35.764h72.641c103.353-22.953,190.818-44.891,260.317-31.944
			c29.613,5.543,56.857,16.664,81.332,31.944H3867.002L3867.002,2248.96z M2485.186,2248.96
			c94.082-49.555,197.925-75.483,306.677-71.799c186.441,6.355,384.407,63.652,575.09,71.799h-153.701
			c-312.34-43.032-567.536-106.988-763.889,0H2485.186L2485.186,2248.96z M3452.29,2248.96h-3.397
			c159.246-20.824,287.359-73.962,383.732-69.466c60.878,2.805,113.239,29.443,155.324,69.466h17.137
			c-8.112-8.384-16.665-16.09-25.623-22.953c-89.189-68.519-233.139-22.141-437.715,13.353
			C3512.241,2244.463,3482.391,2247.539,3452.29,2248.96z"/>
		<path fill="#EC008C" d="M3777.222,2248.96c-27.11-8.891-57.228-15.144-90.253-17.579c-48.069-3.515-100.835,4.868-157.286,17.579
			h-9.567c91.337-19.065,169.286-38.976,233.207-37.624c50.807,1.116,95.326,15.111,132.339,37.624H3777.222z"/>
		<path fill="#EC008C" d="M3693.966,2248.96c-19.47-2.84-40.395-4.394-62.738-4.294c-17.714,0.102-36.001,1.656-54.762,4.294
			h-10.242c43.977-9.365,83.73-16.565,119.172-18.457c46.058-2.468,86.688,4.698,120.83,18.457H3693.966z"/>
	</g>
	<g>
		<path fill="#F9C2CD" d="M4316.261,1060.234c-97.775,31.774-197.933,42.101-298.666,24.574
			c-173.376-30.153-332.318-231.365-492.409-464.927c-154.902-225.955-304.329-525.569-482.471-587.294
			c-6.354-2.214-12.676-4.057-18.963-5.628h-101.543c-129.366,31.134-244.507,173.156-340.262,293.259
			c-55.632,69.803-106.2,131.34-152.528,172.884c-43.766,39.246-84.499,61.607-124.175,56.368
			c-54.346-7.15-102.694-78.339-138.77-159.601c-38.247-86.148-66.414-190.801-86.011-298.481
			c-3.913-21.449-7.446-42.948-10.623-64.429h-6.321c1.893,12.389,3.896,24.761,6.033,37.117
			c16.987,98.332,41.925,198.625,73.209,281.444c31.158,82.461,69.196,150.119,113.739,184.344
			c55.656,42.778,113.156,6.947,180.119-61.42c73.555-75.11,163.125-194.079,275.369-300.847
			c116.096-110.418,252.61-71.697,403.845,52.107c163.167,133.625,337.692,358.768,519.145,592.095
			c221.748,285.111,459.536,357.424,681.283,299.005V1060.234z"/>
		<path fill="#F9C2CD" d="M4316.261,84.966c-138.035,169.759-321.381,294.678-519.299,273.297
			c-213.786-23.088-433.286-228.627-668.116-331.304h-79.876c104.992,19.031,217.116,69.955,332.756,143.376
			c246.966,156.813,463.49,249.382,648.19,176.367c108.947-43.081,205.032-125.916,286.345-228.593V84.966L4316.261,84.966z
			 M2863.019,26.96c-36.271,13.69-71.392,30.609-105.034,47.274c-95.772,47.442-180.162,111.955-257.85,119.594
			c-108.338,10.665-184.344-60.693-230.197-166.869h-7.454c2.814,7.607,5.73,15.094,8.747,22.428
			c38.662,93.923,99.338,164.233,177.27,165.112c96.812,1.064,212.791-100.952,357.932-164.553
			c23.358-10.227,47.357-17.832,71.967-22.987H2863.019z"/>
		<path fill="#0295D6" d="M3678.855,26.96c-52.326,6.845-106.615,7.894-162.457,2.722c-8.316-0.761-16.665-1.674-25.014-2.722
			h30.355c57.245,6.288,113.595,6.305,168.338,0H3678.855L3678.855,26.96z M2768.506,26.96c-12.955,2.755-25.826,5.206-38.628,7.234
			c-67.117,10.615-126.171,7.589-176.823-7.234h-29.537c63.137,19.995,142.734,19.235,238.97,0H2768.506z"/>
		<path fill="#EC008C" d="M2462.919,26.96c86.891,59.798,205.446,39.803,347.553,1.691c2.181-0.575,4.344-1.132,6.525-1.691h-16.175
			c-152.215,42.271-258.458,52.328-327.897,0H2462.919L2462.919,26.96z M3096.48,26.96c20.925,3.635,42.136,7.826,63.633,12.525
			c138.964,30.27,288.238,81.972,442.346,125.916c235.54,67.165,454.077,5.814,618.343-138.442h-55.116
			c-141.5,120.458-314.806,181.218-505.389,147.872c-126.659-22.141-254.874-98.637-390.12-147.872h-140.351
			c130.615,50.215,261.333,163.151,395.428,247.303c283.809,178.125,566.826,172.954,791.007-40.21v-12.456
			c-219.162,220.531-501.704,254.436-800.405,61.489c-136.259-88.024-271.269-207.196-406.903-256.126H3096.48L3096.48,26.96z
			 M2866.923,26.96h4.242c-101.847,35.308-196.277,102.593-283.92,128.249c-126.752,37.098-216.22-21.566-268.918-128.249h-3.989
			c62.671,127.775,178.43,160.7,341.884,93.533C2721.858,93.535,2792.303,53.158,2866.923,26.96z"/>
		<path fill="#EC008C" d="M2574.197,26.96c21.035,5.865,43.54,9.143,67.472,9.313c31.63,0.22,65.265-3.465,100.698-9.313h-25.352
			c-52.75,10.699-99.414,15.228-139.826,5.156c-5.781-1.436-11.477-3.177-17.096-5.156H2574.197L2574.197,26.96z M4109.268,26.96
			c-125.51,95.291-273.737,143.68-430.076,129.399c-129.092-11.781-259.32-81.972-394.615-129.399h12.202
			c327.112,83.123,584.826,186.846,785.516,50.08c22.411-15.279,43.808-32.046,64.175-50.08H4109.268L4109.268,26.96z
			 M2805.216,26.96c-189.17,59.613-321.797,94.125-404.006,15.871c-5.222-4.969-10.293-10.275-15.211-15.871h22.344
			c40.277,42.948,88.784,69.736,143.977,71.089c69.979,1.724,155.434-34.784,257.359-65.393c6.388-1.926,12.878-3.82,19.403-5.696
			H2805.216z"/>
		<path fill-rule="evenodd" clip-rule="evenodd" fill="#F9C2CD" d="M2489.454,26.96c23.661,14.046,50.07,24.389,79.386,29.865
			c63.11,11.814,131.037-7.234,203.655-29.865h-55.952c-86.807,19.37-161.14,29.003-221.665,0H2489.454L2489.454,26.96z
			 M3431.518,26.96c129.904,21.804,253.827,26.655,368.114,0h49.623c-29.375,9.533-59.95,17.054-91.774,22.243
			c-104.417,17.037-210.898,0.473-317.714-22.243H3431.518z"/>
		<path fill="#EC008C" d="M3788.174,26.96c-49.116,11.713-99.973,17.054-152.012,15.279c-51.769-1.757-104.485-7.639-157.69-15.279
			h155.055c49.082,3.33,95.932,3.82,140.553,0H3788.174L3788.174,26.96z M2663.758,26.96c-29.898,2.84-57.202,3.245-81.963,0h-4.927
			c20.198,7.454,41.731,12.018,64.523,13.065c33.515,1.556,71.053-4.174,112.564-13.065H2663.758z"/>
	</g>
	<g>
		<path fill-rule="evenodd" clip-rule="evenodd" fill="#F8ABAD" d="M3905.199,1800.866c-11.559-0.845-22.309-10.14-33.465-18.624
			c-14.602-11.156-86.941-65.409-108.507-97.42c-21.566-31.979-26.788-64.327-17.747-92.148
			c9.043-27.852,35.831-46.613,51.821-51.819c4.258-1.386,8.821-2.366,13.705-2.84c28.142-2.704,46.498,9.939,68.266,24.169
			c8.958,5.883,18.828,11.391,25.926,12.101c7.099-0.71,17.004-6.218,25.945-12.101c21.769-14.23,40.106-26.873,68.264-24.169
			c4.867,0.474,9.465,1.454,13.69,2.84c16.023,5.206,42.795,23.967,51.837,51.819c9.043,27.821,3.837,60.17-17.729,92.148
			c-21.567,32.011-93.923,86.264-108.542,97.42C3927.527,1790.725,3916.795,1800.021,3905.199,1800.866z"/>
		<path fill="#808285" d="M3891.272,1801.847c-15.786-1.149-28.494-10.987-41.475-20.992l-4.259-3.28v-0.033l-2.468-1.893
			c-21.904-16.63-101.055-76.766-126.051-113.883c-13.285-19.673-21.634-39.616-25.386-59.087
			c-3.922-20.52-2.738-40.429,3.278-58.886c5.24-16.225,14.874-29.983,25.793-40.902c13.96-13.96,30.455-23.526,42.524-27.448
			c2.823-0.912,5.881-1.724,9.195-2.4c3.008-0.642,6.186-1.115,9.464-1.419c36.238-3.482,58.953,11.392,85.251,28.631l2.131,1.386
			c4.934,3.245,10.005,6.321,14.399,8.484h0.05c3.28,1.623,6.237,2.805,8.486,3.28c2.247-0.474,5.189-1.656,8.467-3.28h0.067
			c4.394-2.163,9.431-5.239,14.399-8.484l2.113-1.386c26.315-17.24,49.031-32.113,85.269-28.631
			c3.278,0.305,6.438,0.777,9.465,1.419c3.312,0.677,6.354,1.488,9.194,2.4c12.068,3.922,28.564,13.488,42.524,27.448v0.068
			c10.919,10.884,20.552,24.677,25.793,40.834c5.999,18.456,7.2,38.366,3.245,58.919c-3.737,19.438-12.103,39.38-25.353,59.054
			c-25.014,37.117-104.147,97.252-126.051,113.883l-2.484,1.893l0.016,0.033l-4.259,3.28c-12.98,10.005-25.689,19.843-41.51,20.992
			H3891.272L3891.272,1801.847z M3865.616,1760.336c9.448,7.337,18.728,14.502,26.57,15.551c7.859-1.049,17.137-8.214,26.603-15.516
			l4.259-3.28l0.101-0.068l2.57-1.961c21.092-16.021,97.403-73.993,120.169-107.797c11.256-16.733,18.321-33.398,21.398-49.419
			c3.11-16.193,2.214-31.741-2.435-46.041c-3.87-11.899-11.172-22.241-19.486-30.592l-0.018,0.035
			c-10.987-10.987-23.375-18.288-32.198-21.161c-2.163-0.71-4.275-1.284-6.338-1.689c-2.196-0.474-4.462-0.812-6.726-1.014
			c-27.145-2.603-46.362,10.005-68.654,24.574l-2.096,1.386c-5.408,3.55-11.257,7.065-17.207,10.005l0,0
			c-6.456,3.178-12.878,5.476-18.726,6.018h-2.433c-5.848-0.542-12.271-2.84-18.711-6.018h0.017
			c-5.95-2.941-11.831-6.456-17.207-10.005l-2.129-1.386c-22.276-14.604-41.51-27.177-68.619-24.574
			c-2.283,0.203-4.531,0.54-6.728,1.014c-2.063,0.405-4.192,0.98-6.355,1.689c-8.823,2.873-21.229,10.209-32.181,21.161
			c-8.349,8.349-15.651,18.693-19.503,30.557c-4.666,14.299-5.578,29.882-2.468,46.006c3.075,16.056,10.14,32.721,21.431,49.453
			c22.749,33.804,99.059,91.776,120.169,107.797l2.57,1.961l0.1,0.068L3865.616,1760.336z"/>
	</g>
	<path fill-rule="evenodd" clip-rule="evenodd" fill="#EC008C" d="M1330.999,1972.011c-4.716-0.338-9.093-4.124-13.64-7.572
		c-5.948-4.564-35.417-26.638-44.206-39.685c-8.78-13.048-10.91-26.231-7.226-37.555c3.685-11.324,14.595-18.963,21.118-21.092
		c1.725-0.575,3.584-0.981,5.578-1.149c11.459-1.116,18.939,4.022,27.811,9.836c3.643,2.401,7.674,4.631,10.564,4.936
		c2.89-0.305,6.912-2.535,10.564-4.936c8.865-5.813,16.343-10.952,27.811-9.836c1.985,0.168,3.853,0.575,5.578,1.149
		c6.515,2.129,17.425,9.768,21.109,21.092c3.685,11.324,1.563,24.507-7.226,37.555c-8.78,13.048-38.257,35.121-44.206,39.685
		C1340.083,1967.886,1335.707,1971.673,1330.999,1972.011z"/>
	<path fill-rule="evenodd" clip-rule="evenodd" fill="#EC008C" d="M2338.54,1861.745c-2.823-0.203-5.441-2.501-8.146-4.564
		c-3.565-2.703-21.186-15.921-26.442-23.73c-5.256-7.774-6.525-15.651-4.318-22.444c2.196-6.795,8.721-11.359,12.625-12.608
		c1.03-0.339,2.146-0.575,3.33-0.711c6.861-0.642,11.331,2.435,16.639,5.883c2.172,1.454,4.588,2.806,6.312,2.975
		c1.732-0.17,4.142-1.521,6.322-2.975c5.306-3.447,9.768-6.525,16.63-5.883c1.184,0.137,2.298,0.372,3.339,0.711
		c3.896,1.25,10.419,5.813,12.617,12.608c2.205,6.793,0.938,14.67-4.318,22.444c-5.249,7.809-22.876,21.026-26.443,23.73
		C2343.983,1859.244,2341.362,1861.543,2338.54,1861.745z"/>
	<path fill-rule="evenodd" clip-rule="evenodd" fill="#EC008C" d="M4057.381,1199.342c-3.583-0.272-6.862-3.145-10.31-5.748
		c-4.497-3.413-26.738-20.113-33.38-29.948c-6.643-9.862-8.231-19.801-5.459-28.37c2.771-8.569,11.02-14.332,15.954-15.956
		c1.284-0.422,2.705-0.727,4.209-0.862c8.654-0.827,14.315,3.06,21.009,7.437c2.738,1.809,5.779,3.515,7.977,3.719
		c2.163-0.204,5.206-1.911,7.977-3.719c6.695-4.377,12.338-8.264,20.992-7.437c1.521,0.135,2.908,0.44,4.227,0.862
		c4.901,1.623,13.148,7.387,15.938,15.956c2.788,8.569,1.165,18.508-5.46,28.37c-6.625,9.836-28.901,26.535-33.397,29.948
		C4064.243,1196.197,4060.931,1199.07,4057.381,1199.342z"/>
	<path fill-rule="evenodd" clip-rule="evenodd" fill="#EC008C" d="M2294.072,542.219c-2.594-0.185-5.012-2.281-7.513-4.192
		c-3.286-2.501-19.529-14.669-24.372-21.869c-4.843-7.184-6.016-14.451-3.981-20.705c2.028-6.237,8.046-10.462,11.637-11.629
		c0.955-0.322,1.978-0.524,3.075-0.625c6.322-0.626,10.438,2.214,15.331,5.424c2.011,1.319,4.233,2.553,5.822,2.705
		c1.597-0.152,3.82-1.386,5.831-2.705c4.884-3.21,9.008-6.051,15.331-5.424c1.089,0.1,2.12,0.303,3.075,0.625
		c3.591,1.166,9.609,5.391,11.637,11.629c2.035,6.253,0.862,13.52-3.981,20.705c-4.851,7.2-21.094,19.368-24.372,21.869
		C2299.083,539.938,2296.675,542.034,2294.072,542.219z"/>
	<path fill-rule="evenodd" clip-rule="evenodd" fill="#EC008C" d="M2289.01,1186.227c-3.321-0.237-6.396-2.908-9.6-5.341
		c-4.192-3.212-24.947-18.761-31.132-27.948c-6.186-9.178-7.681-18.456-5.087-26.45c2.594-7.977,10.275-13.353,14.863-14.857
		c1.219-0.405,2.536-0.677,3.931-0.812c8.079-0.777,13.344,2.84,19.58,6.93c2.579,1.691,5.408,3.279,7.445,3.465
		c2.037-0.185,4.877-1.774,7.437-3.465c6.244-4.09,11.518-7.707,19.588-6.93c1.395,0.135,2.705,0.407,3.93,0.812
		c4.579,1.504,12.271,6.88,14.865,14.857c2.594,7.994,1.099,17.272-5.088,26.45c-6.186,9.187-26.94,24.735-31.132,27.948
		C2295.406,1183.319,2292.331,1185.99,2289.01,1186.227z"/>
	<path fill-rule="evenodd" clip-rule="evenodd" fill="#EC008C" d="M3773.402,366.24c-3.178-0.236-6.118-2.788-9.195-5.121
		c-4.022-3.058-23.898-17.965-29.831-26.771c-5.933-8.788-7.352-17.696-4.884-25.336c2.501-7.656,9.87-12.81,14.264-14.247
		c1.149-0.389,2.418-0.642,3.752-0.779c7.741-0.742,12.778,2.723,18.761,6.643c2.468,1.623,5.206,3.145,7.132,3.33
		c1.961-0.185,4.664-1.706,7.132-3.33c5.983-3.92,11.02-7.385,18.761-6.643c1.352,0.137,2.603,0.389,3.785,0.779
		c4.394,1.437,11.764,6.591,14.231,14.247c2.501,7.64,1.049,16.548-4.866,25.336c-5.933,8.806-25.826,23.712-29.85,26.771
		C3779.555,363.452,3776.597,366.005,3773.402,366.24z"/>
	<path fill-rule="evenodd" clip-rule="evenodd" fill="#EC008C" d="M2957.938,1957.442c-1.826-0.102-3.532-1.589-5.306-2.941
		c-2.299-1.758-13.759-10.345-17.172-15.414c-3.415-5.071-4.227-10.175-2.805-14.569c1.437-4.429,5.678-7.404,8.214-8.214
		c0.659-0.237,1.386-0.372,2.164-0.44c4.462-0.44,7.352,1.554,10.817,3.82c1.402,0.912,2.975,1.791,4.09,1.892
		c1.116-0.1,2.688-0.98,4.107-1.892c3.448-2.265,6.338-4.259,10.8-3.82c0.779,0.068,1.488,0.202,2.163,0.44
		c2.536,0.81,6.778,3.785,8.214,8.214c1.421,4.394,0.609,9.498-2.805,14.569c-3.413,5.069-14.872,13.655-17.172,15.414
		C2961.47,1955.853,2959.764,1957.34,2957.938,1957.442z"/>
	<path fill-rule="evenodd" clip-rule="evenodd" fill="#EC008C" d="M3562.302,2078.355c-3.33-0.236-6.405-2.906-9.6-5.341
		c-4.19-3.21-24.946-18.759-31.132-27.955c-6.186-9.161-7.689-18.456-5.104-26.433c2.603-7.979,10.275-13.353,14.874-14.874
		c1.217-0.372,2.535-0.677,3.937-0.812c8.062-0.744,13.335,2.873,19.588,6.964c2.57,1.656,5.393,3.245,7.437,3.448
		c2.029-0.203,4.869-1.791,7.437-3.448c6.238-4.091,11.494-7.708,19.573-6.964c1.419,0.135,2.721,0.44,3.938,0.812
		c4.581,1.521,12.288,6.895,14.856,14.874c2.603,7.977,1.116,17.272-5.071,26.433c-6.186,9.195-26.94,24.744-31.132,27.955
		C3568.691,2075.449,3565.614,2078.119,3562.302,2078.355z"/>
	<path fill-rule="evenodd" clip-rule="evenodd" fill="#EC008C" d="M4095.545,414.259c-2.873-0.204-5.578-2.535-8.349-4.649
		c-3.652-2.773-21.703-16.328-27.077-24.304c-5.374-7.977-6.693-16.056-4.429-23.003c2.265-6.947,8.925-11.629,12.93-12.93
		c1.064-0.337,2.214-0.59,3.432-0.71c7.013-0.659,11.594,2.486,17.035,6.035c2.231,1.469,4.699,2.856,6.457,3.025
		c1.774-0.17,4.242-1.556,6.473-3.025c5.426-3.55,10.022-6.694,17.037-6.035c1.216,0.12,2.349,0.372,3.43,0.71
		c3.989,1.302,10.665,5.983,12.913,12.93c2.266,6.947,0.947,15.026-4.427,23.003c-5.376,7.977-23.427,21.532-27.077,24.304
		C4101.122,411.724,4098.435,414.055,4095.545,414.259z"/>
	<path fill-rule="evenodd" clip-rule="evenodd" fill="#EC008C" d="M4199.54,1669.068c-1.504-0.135-2.925-1.352-4.378-2.433
		c-1.892-1.489-11.357-8.553-14.163-12.745c-2.823-4.157-3.515-8.417-2.333-12.034c1.184-3.65,4.699-6.083,6.777-6.76
		c0.558-0.203,1.167-0.305,1.792-0.372c3.667-0.372,6.068,1.284,8.908,3.145c1.182,0.777,2.468,1.487,3.397,1.589
		c0.93-0.102,2.214-0.812,3.397-1.589c2.838-1.861,5.239-3.517,8.906-3.145c0.642,0.067,1.234,0.17,1.792,0.372
		c2.079,0.677,5.595,3.11,6.777,6.76c1.184,3.617,0.507,7.876-2.332,12.034c-2.807,4.192-12.271,11.256-14.164,12.745
		C4202.463,1667.717,4201.044,1668.933,4199.54,1669.068z"/>
	<path fill-rule="evenodd" clip-rule="evenodd" fill="#EC008C" d="M2724.368,176.301c-1.961-0.152-3.761-1.706-5.646-3.143
		c-2.451-1.876-14.636-11.002-18.269-16.395c-3.626-5.391-4.505-10.833-2.975-15.516c1.521-4.682,6.025-7.842,8.721-8.721
		c0.71-0.235,1.487-0.405,2.299-0.473c4.749-0.457,7.833,1.674,11.502,4.057c1.504,0.997,3.169,1.926,4.368,2.044
		c1.184-0.118,2.856-1.047,4.361-2.044c3.667-2.383,6.751-4.514,11.492-4.057c0.82,0.068,1.589,0.237,2.307,0.473
		c2.688,0.879,7.2,4.039,8.721,8.721c1.521,4.683,0.651,10.125-2.982,15.516c-3.635,5.393-15.812,14.519-18.271,16.395
		C2728.12,174.595,2726.311,176.149,2724.368,176.301z"/>
	<path fill-rule="evenodd" clip-rule="evenodd" fill="#EC008C" d="M2129.646,1212.323c-2.89-0.203-5.57-2.536-8.358-4.666
		c-3.643-2.771-21.693-16.293-27.077-24.305c-5.383-7.977-6.684-16.056-4.427-22.985c2.257-6.954,8.941-11.636,12.93-12.937
		c1.064-0.339,2.205-0.592,3.422-0.694c7.023-0.675,11.603,2.468,17.037,6.035c2.231,1.452,4.699,2.83,6.473,3
		c1.767-0.17,4.233-1.547,6.464-3c5.434-3.567,10.015-6.71,17.037-6.035c1.217,0.102,2.357,0.355,3.415,0.694
		c3.996,1.302,10.682,5.983,12.937,12.937c2.257,6.93,0.955,15.009-4.427,22.985c-5.384,8.012-23.434,21.534-27.086,24.305
		C2135.215,1209.787,2132.528,1212.12,2129.646,1212.323z"/>
	<path fill-rule="evenodd" clip-rule="evenodd" fill="#EC008C" d="M2243.807,2126.321c-2.375-0.168-4.58-2.061-6.862-3.82
		c-2.999-2.264-17.832-13.42-22.259-19.978c-4.42-6.558-5.493-13.183-3.635-18.896c1.859-5.713,7.344-9.566,10.632-10.615
		c0.871-0.303,1.809-0.507,2.805-0.575c5.772-0.574,9.533,2.029,13.995,4.936c1.842,1.217,3.87,2.366,5.324,2.501
		c1.454-0.135,3.482-1.284,5.315-2.501c4.462-2.907,8.223-5.51,13.995-4.936c1.005,0.067,1.935,0.272,2.814,0.575
		c3.28,1.049,8.773,4.901,10.623,10.615c1.859,5.713,0.786,12.338-3.635,18.896c-4.418,6.558-19.259,17.714-22.25,19.978
		C2248.38,2124.26,2246.182,2126.153,2243.807,2126.321z"/>
	<path fill-rule="evenodd" clip-rule="evenodd" fill="#EC008C" d="M2308.032,1076.02c-2.061-0.152-3.972-1.809-5.957-3.313
		c-2.603-1.995-15.481-11.646-19.327-17.342c-3.837-5.696-4.767-11.459-3.152-16.41c1.604-4.969,6.38-8.299,9.228-9.228
		c0.751-0.254,1.563-0.422,2.433-0.507c5.01-0.474,8.281,1.774,12.16,4.309c1.589,1.031,3.356,2.028,4.614,2.146
		c1.269-0.118,3.025-1.115,4.614-2.146c3.88-2.536,7.15-4.784,12.162-4.309c0.871,0.085,1.681,0.253,2.442,0.507
		c2.84,0.929,7.613,4.259,9.228,9.228c1.606,4.952,0.677,10.715-3.16,16.41c-3.837,5.696-16.724,15.347-19.327,17.342
		C2312.004,1074.212,2310.095,1075.868,2308.032,1076.02z"/>
	<path fill-rule="evenodd" clip-rule="evenodd" fill="#EC008C" d="M2548.034,1112.898c-1.317-0.083-2.56-1.149-3.837-2.129
		c-1.672-1.284-9.97-7.504-12.456-11.172c-2.468-3.667-3.067-7.387-2.028-10.58c1.04-3.195,4.107-5.358,5.95-5.95
		c0.481-0.152,1.005-0.27,1.571-0.32c3.228-0.305,5.332,1.132,7.824,2.771c1.031,0.677,2.164,1.302,2.975,1.386
		c0.82-0.085,1.961-0.71,2.984-1.386c2.492-1.639,4.605-3.075,7.833-2.771c0.559,0.05,1.082,0.168,1.572,0.32
		c1.835,0.592,4.91,2.755,5.95,5.95c1.032,3.193,0.44,6.912-2.037,10.58c-2.475,3.667-10.774,9.887-12.456,11.172
		C2550.604,1111.749,2549.37,1112.815,2548.034,1112.898z"/>
	<path fill-rule="evenodd" clip-rule="evenodd" fill="#EC008C" d="M2593.719,1210.632c-1.489-0.135-2.857-1.319-4.294-2.401
		c-1.876-1.452-11.18-8.417-13.951-12.541c-2.781-4.09-3.448-8.247-2.283-11.831c1.158-3.583,4.607-5.983,6.66-6.658
		c0.549-0.203,1.132-0.305,1.767-0.372c3.616-0.337,5.975,1.284,8.771,3.11c1.149,0.742,2.425,1.454,3.33,1.554
		c0.921-0.1,2.188-0.812,3.337-1.554c2.799-1.826,5.164-3.448,8.781-3.11c0.625,0.067,1.217,0.17,1.757,0.372
		c2.063,0.675,5.511,3.075,6.668,6.658c1.158,3.584,0.49,7.741-2.283,11.831c-2.771,4.124-12.075,11.089-13.951,12.541
		C2596.592,1209.313,2595.215,1210.497,2593.719,1210.632z"/>
	<path fill-rule="evenodd" clip-rule="evenodd" fill="#EC008C" d="M2540.555,2103.066c-1.682-0.102-3.254-1.454-4.875-2.705
		c-2.131-1.622-12.66-9.533-15.803-14.197c-3.145-4.631-3.905-9.363-2.586-13.42c1.317-4.057,5.213-6.795,7.546-7.537
		c0.625-0.202,1.284-0.339,1.994-0.407c4.098-0.405,6.769,1.454,9.946,3.517c1.302,0.845,2.738,1.656,3.778,1.757
		c1.031-0.101,2.477-0.912,3.778-1.757c3.169-2.063,5.846-3.922,9.938-3.517c0.71,0.068,1.378,0.204,1.994,0.407
		c2.333,0.742,6.238,3.48,7.554,7.537c1.319,4.057,0.559,8.789-2.586,13.42c-3.143,4.664-13.673,12.575-15.803,14.197
		C2543.801,2101.612,2542.238,2102.964,2540.555,2103.066z"/>
	<path fill-rule="evenodd" clip-rule="evenodd" fill="#EC008C" d="M2336.731,1235.308c-0.921-0.067-1.774-0.777-2.653-1.454
		c-1.167-0.912-6.912-5.206-8.619-7.741c-1.724-2.568-2.131-5.137-1.421-7.335c0.727-2.196,2.849-3.685,4.124-4.124
		c0.331-0.1,0.694-0.168,1.082-0.202c2.24-0.237,3.702,0.777,5.426,1.893c0.709,0.473,1.504,0.912,2.061,0.98
		c0.568-0.068,1.354-0.507,2.063-0.98c1.724-1.116,3.186-2.13,5.426-1.893c0.388,0.035,0.742,0.102,1.082,0.202
		c1.275,0.44,3.396,1.928,4.122,4.124c0.718,2.198,0.305,4.766-1.41,7.335c-1.715,2.536-7.463,6.829-8.621,7.741
		C2338.507,1234.531,2337.653,1235.241,2336.731,1235.308z"/>
	<path fill-rule="evenodd" clip-rule="evenodd" fill="#EC008C" d="M2450.344,1169.595c-0.761-0.033-1.471-0.675-2.214-1.217
		c-0.964-0.744-5.756-4.327-7.184-6.456c-1.428-2.13-1.774-4.259-1.173-6.12c0.599-1.833,2.375-3.067,3.43-3.422
		c0.279-0.085,0.583-0.152,0.904-0.185c1.869-0.17,3.077,0.658,4.522,1.604c0.592,0.389,1.241,0.761,1.715,0.794
		c0.473-0.033,1.123-0.405,1.724-0.794c1.437-0.947,2.653-1.774,4.512-1.604c0.322,0.033,0.626,0.1,0.914,0.185
		c1.056,0.354,2.832,1.589,3.43,3.422c0.6,1.861,0.254,3.989-1.182,6.12c-1.421,2.129-6.212,5.711-7.176,6.456
		C2451.822,1168.92,2451.112,1169.562,2450.344,1169.595z"/>
	<path fill-rule="evenodd" clip-rule="evenodd" fill="#EC008C" d="M1536.386,1526.994c-0.912-0.068-1.767-0.812-2.653-1.487
		c-1.158-0.879-6.905-5.173-8.621-7.707c-1.715-2.57-2.129-5.139-1.411-7.337c0.718-2.196,2.847-3.718,4.116-4.123
		c0.338-0.102,0.701-0.17,1.09-0.237c2.24-0.203,3.692,0.812,5.424,1.926c0.711,0.474,1.489,0.912,2.054,0.981
		c0.566-0.069,1.352-0.507,2.061-0.981c1.732-1.115,3.186-2.129,5.426-1.926c0.389,0.068,0.753,0.135,1.09,0.237
		c1.267,0.405,3.397,1.926,4.116,4.123c0.718,2.198,0.305,4.766-1.412,7.337c-1.707,2.534-7.453,6.828-8.619,7.707
		C1538.169,1526.182,1537.307,1526.927,1536.386,1526.994z"/>
	<path fill-rule="evenodd" clip-rule="evenodd" fill="#EC008C" d="M1537.207,1457.428c-1.489-0.102-2.875-1.284-4.302-2.4
		c-1.876-1.419-11.18-8.384-13.951-12.506c-2.773-4.124-3.449-8.283-2.283-11.866c1.166-3.583,4.605-5.983,6.66-6.66
		c0.557-0.168,1.141-0.303,1.765-0.37c3.626-0.339,5.976,1.284,8.782,3.108c1.149,0.779,2.416,1.488,3.33,1.556
		c0.912-0.068,2.188-0.777,3.337-1.556c2.797-1.824,5.156-3.448,8.78-3.108c0.618,0.068,1.21,0.202,1.758,0.37
		c2.054,0.677,5.502,3.077,6.66,6.66c1.167,3.583,0.49,7.742-2.283,11.866c-2.771,4.123-12.066,11.087-13.943,12.506
		C1540.08,1456.144,1538.693,1457.326,1537.207,1457.428z"/>
	<g>
		<path fill-rule="evenodd" clip-rule="evenodd" fill="#F8ABAD" d="M3411.608,941.483c-8.891-0.658-17.138-7.79-25.674-14.297
			c-11.206-8.536-66.71-50.165-83.24-74.705c-16.563-24.542-20.552-49.353-13.605-70.7c6.93-21.347,27.465-35.746,39.735-39.753
			c3.278-1.065,6.795-1.809,10.513-2.179c21.601-2.046,35.663,7.639,52.361,18.557c6.88,4.496,14.467,8.756,19.91,9.263
			c5.443-0.507,13.015-4.766,19.875-9.263c16.7-10.917,30.779-20.602,52.361-18.557c3.752,0.37,7.267,1.114,10.512,2.179
			c12.271,4.006,32.823,18.406,39.753,39.753c6.93,21.347,2.94,46.158-13.605,70.7c-16.53,24.54-72.034,66.169-83.24,74.705
			C3428.713,933.693,3420.482,940.825,3411.608,941.483z"/>
		<path fill="#808285" d="M3400.926,942.21c-12.136-0.878-21.871-8.399-31.842-16.089l-3.245-2.52l0,0l-1.911-1.452
			c-16.783-12.761-77.493-58.886-96.693-87.347c-10.175-15.111-16.58-30.422-19.453-45.331c-3.025-15.751-2.096-31.03,2.518-45.177
			c4.022-12.44,11.409-23.003,19.775-31.369c10.715-10.715,23.358-18.034,32.619-21.059c2.163-0.692,4.514-1.319,7.065-1.841
			c2.298-0.474,4.733-0.846,7.252-1.099c27.785-2.653,45.211,8.754,65.392,21.971l1.622,1.064c3.804,2.485,7.674,4.851,11.054,6.525
			h0.035c2.518,1.234,4.766,2.146,6.506,2.518c1.741-0.372,3.989-1.284,6.507-2.518h0.035c3.38-1.674,7.25-4.039,11.054-6.525
			l1.622-1.064c20.18-13.2,37.589-24.625,65.391-21.971c2.518,0.253,4.953,0.625,7.267,1.099c2.52,0.523,4.886,1.149,7.049,1.841
			c9.261,3.025,21.904,10.344,32.619,21.059v0.033c8.384,8.384,15.753,18.931,19.775,31.336c4.614,14.164,5.543,29.426,2.501,45.177
			c-2.873,14.926-9.278,30.22-19.453,45.331c-19.183,28.462-79.893,74.587-96.676,87.347l-1.911,1.452l0,0l-3.245,2.52
			c-9.971,7.69-19.706,15.211-31.842,16.089H3400.926L3400.926,942.21z M3381.219,910.403c7.269,5.611,14.367,11.104,20.384,11.914
			c6.033-0.81,13.148-6.303,20.417-11.914l3.26-2.52l0.085-0.033l1.961-1.487c16.191-12.305,74.704-56.773,92.181-82.7
			c8.636-12.828,14.062-25.622,16.411-37.91c2.383-12.406,1.707-24.355-1.876-35.307c-2.975-9.145-8.552-17.072-14.941-23.46
			l-0.015,0.017c-8.418-8.418-17.934-14.029-24.694-16.225c-1.656-0.542-3.28-0.981-4.867-1.301
			c-1.674-0.355-3.415-0.609-5.173-0.794c-20.788-1.978-35.543,7.672-52.631,18.861l-1.622,1.064
			c-4.124,2.705-8.621,5.426-13.185,7.674l0,0c-4.969,2.451-9.87,4.192-14.365,4.614h-1.861c-4.495-0.422-9.413-2.163-14.365-4.614
			l0,0c-4.564-2.248-9.06-4.969-13.185-7.674l-1.622-1.064c-17.105-11.189-31.844-20.84-52.648-18.861
			c-1.741,0.185-3.465,0.44-5.156,0.794c-1.587,0.32-3.21,0.76-4.867,1.301c-6.76,2.214-16.293,7.807-24.694,16.225
			c-6.406,6.405-12.016,14.332-14.957,23.443c-3.583,10.952-4.259,22.901-1.894,35.289c2.366,12.305,7.774,25.099,16.428,37.927
			c17.477,25.928,75.99,70.395,92.181,82.7l1.961,1.487l0.085,0.033L3381.219,910.403z"/>
		<path fill="#808285" d="M3409.04,26.96c-41.933,71.984-124.362,247.084-35.493,391.726
			c117.753,191.715,24.372,315.315,24.102,315.67l-6.964-5.104c0.27-0.339,94.885-122.706-19.808-309.434
			c-89.241-145.285-13.487-317.629,28.631-392.858H3409.04z"/>
		<path fill="#808285" d="M3931.06,26.96c-33.6,76.852-210.796,512.471-70.649,861.673
			c158.097,393.966,32.723,647.997,32.384,648.706l-9.363-10.479c0.338-0.71,129.129-249.263-24.844-633.021
			c-138.492-345.078,17.61-766.703,58.884-866.878H3931.06z"/>
	</g>
	<g>
		<path fill-rule="evenodd" clip-rule="evenodd" fill="#EC008C" d="M1348.382,987.709l0.76-21.464
			c0.187-5.019,4.446-8.991,9.474-8.806l21.473,0.762c5.021,0.185,8.993,4.444,8.806,9.464l-0.76,21.483
			c-0.187,5.019-4.446,8.991-9.474,8.804l-21.464-0.76C1352.167,997.006,1348.197,992.747,1348.382,987.709z"/>
		<path fill-rule="evenodd" clip-rule="evenodd" fill="#00AEEF" d="M2680.179,1084.184l9.49-23.714
			c2.222-5.543,8.578-8.264,14.13-6.051l23.712,9.5c5.545,2.231,8.266,8.586,6.044,14.13l-9.482,23.712
			c-2.222,5.543-8.586,8.264-14.138,6.033l-23.704-9.481C2680.677,1096.098,2677.957,1089.727,2680.179,1084.184z"/>
		<path fill-rule="evenodd" clip-rule="evenodd" fill="#E54C1F" d="M1877.728,918.954l1.869-52.378
			c0.438-12.253-9.228-22.648-21.499-23.088l-52.37-1.876c-12.262-0.438-22.657,9.245-23.096,21.499l-1.867,52.378
			c-0.44,12.271,9.237,22.666,21.499,23.105l52.378,1.859C1866.904,940.893,1877.297,931.225,1877.728,918.954z"/>
		<path fill-rule="evenodd" clip-rule="evenodd" fill="#00AEEF" d="M1872,1368.424l-10.277-25.184
			c-2.407-5.881,0.448-12.676,6.346-15.076l25.166-10.275c5.9-2.401,12.686,0.44,15.094,6.321l10.277,25.184
			c2.399,5.881-0.448,12.676-6.346,15.109l-25.167,10.277C1881.193,1377.18,1874.407,1374.305,1872,1368.424z"/>
		<path fill-rule="evenodd" clip-rule="evenodd" fill="#D1D3D4" d="M3578.139,1591.726l12.845-15.718
			c2.991-3.683,2.451-9.161-1.234-12.169l-15.718-12.845c-3.685-3.008-9.161-2.466-12.17,1.217l-12.844,15.753
			c-3.01,3.685-2.452,9.161,1.217,12.169l15.751,12.812C3569.671,1595.953,3575.13,1595.411,3578.139,1591.726z"/>
		<path fill-rule="evenodd" clip-rule="evenodd" fill="#F4CA0E" d="M2671.617,1666.905l0.947-26.637
			c0.22-6.253,5.51-11.154,11.746-10.952l26.637,0.947c6.246,0.237,11.163,5.511,10.935,11.764l-0.945,26.638
			c-0.22,6.253-5.51,11.154-11.748,10.917l-26.636-0.947C2676.316,1678.432,2671.39,1673.125,2671.617,1666.905z"/>
		<path fill-rule="evenodd" clip-rule="evenodd" fill="#00AEEF" d="M2457.966,729.32l0.627-17.224
			c0.135-4.039-3.043-7.452-7.073-7.587l-17.224-0.626c-4.031-0.135-7.444,3.043-7.596,7.065l-0.609,17.224
			c-0.144,4.039,3.043,7.453,7.073,7.588l17.214,0.626C2454.409,736.52,2457.831,733.342,2457.966,729.32z"/>
	</g>
</g>
</svg>
